<svg width="612" height="498" viewBox="0 0 612 498" fill="none" xmlns="http://www.w3.org/2000/svg">
<path d="M516.29 190.257V189.768C516.779 191.234 518.245 192.212 518.733 193.678C519.711 200.031 516.779 212.248 513.358 219.09C512.869 220.556 510.914 222.022 510.425 223C507.004 230.33 503.584 237.661 499.674 244.991C498.697 247.435 497.23 251.344 495.276 253.788C491.855 259.164 488.923 267.472 485.502 273.825C480.615 284.087 473.773 295.327 467.908 305.101C463.999 311.943 460.578 320.74 455.691 326.604C455.202 327.582 454.225 327.582 454.225 328.07C449.827 337.844 444.94 346.152 438.098 353.971C431.256 360.813 429.301 367.166 425.392 375.474C423.437 379.873 420.505 385.737 418.55 389.647C417.572 391.113 416.595 393.067 416.106 394.534C415.618 395.511 415.129 398.932 414.64 399.421C414.151 399.909 413.174 399.909 412.685 400.398C411.708 408.706 402.423 421.412 396.07 426.299C394.115 426.299 391.671 427.277 390.694 427.765C388.739 427.765 383.852 426.299 381.409 426.788C379.454 427.765 377.499 430.209 378.476 426.788L373.101 427.765L373.589 425.322C373.101 424.833 371.635 425.322 371.146 424.833C371.146 424.833 371.146 422.39 369.68 421.901C369.191 421.412 367.725 421.901 367.236 420.923C366.748 420.435 366.748 416.036 366.748 415.059C367.725 409.683 371.146 406.262 373.101 401.375C375.055 396.488 376.033 391.113 377.499 386.226C377.988 384.76 379.942 382.805 379.942 381.827C380.431 381.827 378.965 381.827 378.965 381.339C378.965 381.339 381.409 374.986 381.897 374.008C384.341 366.678 388.739 359.347 392.649 352.017C394.115 348.596 399.002 342.243 399.49 339.31C399.979 337.844 399.002 337.844 399.49 336.867C400.957 327.093 409.264 313.409 414.151 303.635C423.925 282.133 432.233 261.118 442.985 240.104C445.428 234.24 449.827 228.376 452.27 223C455.202 216.647 460.578 199.542 465.465 196.121C471.329 191.723 471.329 194.655 474.75 193.678C475.239 193.189 480.615 190.746 482.081 189.768C486.479 187.813 491.366 184.881 496.742 183.904C503.095 182.438 507.493 182.438 512.38 185.37C513.846 186.347 515.312 188.791 516.29 190.257ZM560.273 57.8192C561.739 62.7062 561.25 67.5932 558.807 72.9689C556.852 78.8333 552.942 85.1864 549.521 89.5847C549.033 90.5621 547.567 91.5395 547.078 92.5169C546.589 93.983 546.589 95.4491 546.1 96.4265C545.123 97.4039 540.725 100.825 539.747 102.291C537.793 104.246 527.041 114.997 526.064 115.486C523.62 116.463 523.62 117.929 521.177 119.884C515.801 123.794 504.072 130.147 499.674 134.545C498.697 136.011 498.208 137.966 497.23 139.432C496.253 141.387 493.81 142.364 493.321 143.83C492.832 144.319 492.343 146.274 492.343 146.274C491.855 146.763 490.877 146.274 489.9 146.763C489.9 146.763 489.411 147.74 488.923 148.229C487.456 149.206 485.013 149.695 483.547 150.184C481.103 151.161 472.307 154.582 470.352 154.093C470.352 154.093 470.352 153.604 469.863 153.116C464.976 153.116 460.578 153.116 456.668 150.672C455.691 150.184 455.691 149.206 455.202 148.717C454.714 148.717 453.736 149.206 453.736 149.206C453.247 148.717 450.804 144.808 449.827 144.808C448.849 144.319 444.94 144.319 443.473 144.319L443.962 143.342L438.098 142.364C438.586 140.898 436.632 138.943 436.632 138.455C436.632 138.455 437.12 134.545 437.12 134.056C438.098 130.636 441.03 125.749 443.473 122.328C444.451 121.35 447.872 118.418 447.872 117.441C448.36 115.486 445.917 114.997 445.917 114.02C445.428 106.201 453.736 97.4039 460.578 92.0282C475.239 77.8559 526.064 50 545.123 50C550.988 50.4887 558.318 53.9096 560.273 57.8192ZM480.126 143.83C480.126 143.342 480.615 141.876 480.615 141.387C480.615 141.387 478.66 140.41 478.66 140.898L477.682 144.319L480.126 143.83Z" fill="#0A0A0A"/>
<path d="M405.527 321.228C409.436 324.649 411.391 325.138 406.015 331.98C405.038 333.446 398.196 341.754 397.219 342.731C394.775 345.175 388.911 349.573 386.956 351.528C385.49 353.483 384.513 355.926 381.58 358.37C369.363 370.098 353.236 385.737 339.064 393.556C334.177 396.488 326.357 403.819 321.959 407.24C321.47 408.217 320.004 408.217 320.004 408.706C319.516 409.194 319.516 410.172 319.516 410.172C319.027 410.172 318.049 409.194 317.072 409.683C316.583 409.683 316.095 410.661 315.117 411.149C312.674 413.593 308.275 414.57 305.832 416.036C305.343 416.525 304.855 417.502 303.877 418.48C302.411 418.968 300.945 417.991 301.922 419.946C298.501 420.435 295.569 423.855 292.637 425.81C291.66 426.299 290.682 426.299 290.194 426.788C288.727 427.765 288.727 428.742 288.727 429.231C288.239 429.231 287.75 428.254 285.795 429.231C284.818 429.72 282.863 432.163 281.886 432.652C281.397 432.652 276.021 434.118 275.533 434.118C274.066 434.118 266.247 432.652 265.27 432.163C264.781 432.163 265.27 431.186 264.781 431.186C262.826 431.186 261.849 433.141 260.383 434.118C258.428 435.096 250.609 434.607 248.165 434.118C244.744 433.141 242.79 432.163 241.324 430.209C240.835 430.209 239.369 431.186 238.88 430.209C238.391 429.72 235.948 426.788 235.948 426.299C235.459 425.322 236.925 423.367 236.437 422.878C235.948 422.389 234.482 422.389 233.993 421.901C233.016 421.412 233.016 418.968 232.527 417.991C231.55 416.525 230.572 416.525 230.083 415.548C226.174 410.172 224.219 406.751 223.73 398.932C223.242 383.293 231.55 368.144 238.391 352.505C249.631 328.559 260.383 304.124 270.157 279.689C272.112 274.802 273.578 268.937 276.999 264.05C277.487 263.073 278.465 263.073 278.953 262.584C283.84 248.412 292.637 236.195 298.99 222.022C300.945 217.624 302.411 212.737 304.366 208.339C307.298 201.497 308.275 196.61 312.185 189.279C319.516 175.107 333.199 149.206 345.417 137.966C350.304 134.056 361.055 125.748 366.919 122.816C367.897 122.327 369.363 121.839 370.829 121.35C376.693 118.907 386.956 114.02 394.287 114.02C397.219 114.02 399.662 114.997 401.128 116.463C401.128 116.463 401.128 117.44 401.617 117.44C402.595 117.44 403.572 116.463 404.061 116.952C404.549 116.952 406.504 118.907 406.993 119.884C410.902 122.816 412.857 125.748 412.857 131.124C412.369 134.056 411.391 136.988 411.391 139.921C410.902 142.364 411.88 146.762 410.902 149.695C409.925 154.093 404.549 162.89 402.106 167.777C394.287 182.438 385.001 194.166 376.693 207.85C375.227 210.293 374.25 212.737 373.273 214.692C372.784 215.669 371.318 215.669 370.829 216.158C369.852 217.135 368.874 220.067 367.897 221.045C367.408 222.022 366.919 222.022 365.453 223.977C360.078 231.308 354.213 239.127 349.815 246.457C348.838 247.923 348.349 250.367 347.371 251.833C345.417 254.276 345.417 253.788 343.462 257.209C331.244 279.689 322.936 302.169 310.23 324.649C308.275 328.559 295.081 352.994 293.614 353.971C293.126 354.46 292.637 354.46 291.66 355.437C288.727 359.836 295.081 365.7 292.148 371.076C296.058 371.565 300.945 370.098 305.343 369.61C316.583 369.121 317.072 370.098 328.801 364.234C337.597 360.324 345.905 355.437 355.191 350.55C368.386 344.686 381.092 333.935 393.309 324.161C395.264 322.206 400.151 318.296 402.595 318.785C405.038 319.274 404.549 320.74 405.527 321.228Z" fill="#0A0A0A"/>
<path d="M299.708 279.2C301.663 281.155 301.174 285.064 300.685 288.485C299.708 292.883 294.821 299.725 291.4 303.635C287.49 307.544 283.092 311.454 279.671 314.875C277.228 317.318 271.363 325.138 269.409 326.604C267.942 327.581 267.454 327.092 266.965 327.581C266.476 327.581 266.965 328.559 266.476 329.047C265.988 329.536 264.033 330.513 263.544 331.491C261.589 332.957 259.634 334.912 258.168 336.866C253.281 341.265 247.417 345.663 242.041 350.061C238.132 352.994 238.132 352.505 234.711 354.948C231.29 356.903 226.403 363.256 224.937 364.234C223.959 364.722 221.516 364.234 220.538 367.166L220.05 366.188C219.072 367.166 218.095 367.166 217.118 368.143C211.253 372.053 204.9 375.962 199.036 379.872C196.592 381.338 192.683 380.849 192.683 381.338C192.194 381.338 192.194 382.316 191.705 382.804C190.728 383.293 186.818 384.27 185.352 385.248C183.886 385.736 182.42 388.18 180.465 387.203L180.954 388.669C177.533 388.669 174.601 392.578 171.668 394.044C170.691 394.533 166.293 396.488 165.315 396.977C164.338 397.465 162.383 397.465 161.406 397.954C160.428 398.931 160.917 399.42 160.428 399.909C160.428 399.909 159.451 399.42 158.474 399.42C155.541 400.397 152.12 402.841 149.677 404.307C144.79 406.262 140.392 406.751 135.993 408.217C130.129 410.171 126.708 413.104 119.866 414.081C112.047 415.058 95.4312 410.66 88.1007 408.217C87.1233 407.728 83.7024 406.751 83.2137 406.262C82.725 405.773 83.2137 404.796 83.2137 404.796C82.725 404.307 82.2363 404.307 81.7476 404.307C80.2815 402.352 79.3041 400.886 77.838 398.931C74.4171 394.533 76.3719 389.646 71.4849 385.248C70.9962 384.759 70.9962 384.27 70.9962 383.782C70.5075 383.782 69.0414 384.759 68.5527 384.27C68.5527 384.27 67.5753 381.827 67.5753 381.338C66.5979 379.872 68.064 378.406 65.6205 377.917C65.1318 377.917 59.2674 376.451 59.2674 376.451C58.29 375.962 58.7787 374.985 58.29 374.496C57.3126 374.008 55.3578 374.008 54.3804 373.03C49.9821 368.143 49.0047 352.505 50.9595 345.174C55.8465 323.672 68.5527 311.454 83.7024 294.35C93.4764 283.109 123.776 248.412 135.505 241.57C138.437 240.104 141.369 239.615 143.324 238.149C145.279 237.172 147.233 235.217 149.188 233.751C155.541 229.841 171.18 222.999 177.533 221.533C178.999 221.533 189.75 222.022 190.239 222.511C190.239 222.511 190.239 223.488 190.728 223.977C195.126 226.909 196.592 224.954 199.524 230.818C200.502 232.285 204.411 236.194 205.877 237.172C208.321 238.638 208.81 237.66 209.787 241.57C211.253 246.457 209.787 254.276 210.276 259.652C210.276 261.118 211.742 265.516 211.742 266.005C211.253 267.96 211.253 269.915 210.764 271.869C210.276 272.847 208.81 274.802 208.321 275.779C205.877 281.643 202.457 288.974 199.036 294.838C197.57 296.793 193.66 299.725 192.683 300.703C192.683 301.191 193.171 302.169 193.171 302.169C192.683 302.169 191.705 302.657 191.216 302.657C189.75 304.124 188.773 305.59 187.307 304.612C187.307 307.544 186.329 307.056 185.841 308.033C182.42 312.431 178.999 314.386 175.089 318.296C174.601 319.273 174.112 320.739 173.623 321.228C173.135 321.228 171.668 321.228 170.691 321.717C170.202 322.205 169.714 324.16 168.736 324.649C161.894 330.513 150.654 335.4 142.346 338.821C141.858 339.31 141.858 339.799 141.369 339.799C139.903 340.287 138.926 339.31 137.459 339.799C135.993 339.799 133.55 341.753 132.572 342.242C130.618 343.22 124.265 343.22 122.31 343.22C120.844 343.22 119.378 341.753 117.911 343.22C117.911 343.22 116.445 347.129 116.445 347.618C115.957 349.573 116.934 352.016 117.423 353.482C117.911 353.971 120.355 356.414 120.355 356.414C121.332 356.414 123.287 356.414 124.265 356.414C129.64 357.881 133.55 358.858 138.437 358.858C163.849 358.858 189.75 345.174 208.321 328.559C214.674 323.183 220.538 317.318 226.892 312.431C238.132 303.635 249.372 294.35 261.589 285.553C267.454 281.155 274.784 276.756 282.115 274.313C284.558 273.335 286.513 272.847 288.957 272.847C292.377 274.802 296.776 276.756 299.708 279.2ZM118.4 310.477C117.423 315.364 120.844 313.898 125.242 313.898C126.708 313.409 132.084 312.431 133.55 311.943C134.039 311.454 134.527 310.477 135.505 309.988C140.88 307.056 142.346 307.544 146.745 302.169C150.166 298.259 158.474 285.553 156.03 281.643C155.053 280.666 151.143 282.132 149.677 283.109C145.279 285.064 128.663 293.861 125.242 297.282C122.798 299.725 118.889 307.056 118.4 310.477Z" fill="#0A0A0A"/>
<path d="M547.203 0L549.276 0.172852C559.256 1.00456 568.698 3.99205 576.525 7.90527C582.452 10.869 596.28 18.6627 604.602 34.6895L604.995 35.459L606.924 39.3184L608.165 43.4521C613.375 60.822 611.158 77.2837 605.403 91.1719C601.824 100.928 596.651 109.642 592.046 116.154C591.679 117.003 591.273 117.884 590.822 118.787L587.194 126.044L581.457 131.781C581.068 132.17 580.722 132.504 580.446 132.767C580.165 133.033 579.911 133.269 579.698 133.465C579.28 133.849 578.909 134.18 578.63 134.425C578.092 134.899 577.578 135.337 577.246 135.62C577.063 135.775 576.883 135.929 576.727 136.061C576.636 136.138 576.554 136.207 576.475 136.273L575.103 137.646C574.126 138.623 570.789 141.96 567.536 145.148C565.938 146.714 564.159 148.442 562.615 149.896C561.88 150.587 560.904 151.497 559.894 152.386C559.419 152.804 558.574 153.538 557.544 154.359C557.459 154.428 557.363 154.503 557.258 154.585C556.36 155.474 555.367 156.411 554.301 157.344C554.494 157.6 554.675 157.84 554.838 158.062C556.379 160.163 558.534 163.484 557.892 162.521L533.343 178.887L563.724 173.957L563.397 173.009C561.732 168.352 559.683 164.964 558.412 163.057C557.725 162.027 557.149 161.259 556.853 160.872C556.591 160.53 556.376 160.264 556.555 160.488C556.621 160.57 557.08 161.141 557.579 161.792C558.112 162.488 558.917 163.569 559.817 164.92C561.489 167.428 563.885 171.445 565.792 176.781L566.167 177.866L567.507 181.887L568.152 186.075C570.075 198.573 567.942 210.536 566.519 216.98C566.445 217.314 566.368 217.65 566.29 217.989L546.333 261.991L528.779 299.13C523.025 310.59 515.981 322.17 511.133 330.241C509.98 332.294 509.694 333.152 506.597 339.151C504.682 342.862 501.345 349.164 496.52 355.56C491.235 366.161 484.69 376.653 475.727 386.896L474.63 388.149L474.479 388.3C474.292 388.697 474.036 389.254 473.678 390.051C473.128 391.275 472.047 393.724 470.917 396.148C468.419 401.733 465.031 408.486 463.271 412.007L463.042 412.465C462.987 412.654 462.932 412.846 462.874 413.038C462.561 414.075 461.878 416.252 460.765 418.844C460.195 420.171 459.256 422.212 457.875 424.569C457.59 425.055 457.239 425.633 456.82 426.287C453.834 433.258 450.346 438.864 447.915 442.487C442.805 450.104 435.395 459.131 426.555 465.931L413.076 476.299H405.431L402.498 477.766H390.694C389.583 477.766 388.58 477.729 387.722 477.683C384.068 478.362 379.823 478.748 375.165 478.44C374.869 478.421 374.571 478.397 374.271 478.372L309.639 490.123L320.104 437.793C319.261 435.504 318.921 434.034 318.887 433.911C318.001 430.709 317.6 428.048 317.426 426.796C317.051 424.084 316.921 421.711 316.866 420.553C316.742 417.948 316.748 415.525 316.748 415.059V410.551L316.898 409.723C316.957 409.698 317.014 409.684 317.072 409.684C318.049 409.195 319.027 410.172 319.516 410.172C319.516 410.159 319.519 409.191 320.004 408.706C320.004 408.217 321.471 408.217 321.959 407.24C326.358 403.819 334.177 396.489 339.064 393.557C353.236 385.737 369.363 370.099 381.581 358.37C384.513 355.927 385.49 353.483 386.957 351.528C388.911 349.574 394.776 345.175 397.219 342.731C397.489 342.461 398.205 341.632 399.122 340.543C397.845 343.769 393.934 349.019 392.649 352.017C388.739 359.347 384.34 366.677 381.897 374.008C381.408 374.985 378.965 381.339 378.965 381.339C378.966 381.827 380.431 381.827 379.943 381.827C379.943 382.804 377.988 384.76 377.5 386.226C376.033 391.112 375.056 396.488 373.101 401.375C371.146 406.262 367.725 409.683 366.748 415.059C366.748 416.036 366.748 420.435 367.237 420.924C367.726 421.901 369.191 421.412 369.68 421.9C371.145 422.389 371.146 424.829 371.146 424.833C371.635 425.322 373.1 424.833 373.589 425.321L373.101 427.766L378.476 426.788C377.499 430.208 379.454 427.765 381.409 426.788C383.852 426.299 388.739 427.766 390.694 427.766C391.671 427.277 394.115 426.299 396.07 426.299C402.423 421.412 411.707 408.706 412.685 400.398C413.174 399.91 414.151 399.909 414.64 399.421C415.129 398.932 415.617 395.511 416.106 394.533C416.595 393.067 417.573 391.113 418.55 389.646C420.505 385.737 423.437 379.873 425.392 375.475C429.302 367.167 431.256 360.813 438.098 353.972C444.94 346.152 449.827 337.844 454.225 328.07C454.225 327.582 455.202 327.582 455.691 326.604C460.578 320.74 463.999 311.943 467.909 305.102C473.773 295.328 480.614 284.087 485.501 273.824C488.815 267.67 491.671 259.681 494.957 254.301L495.276 253.788C497.231 251.345 498.697 247.435 499.674 244.991C503.584 237.661 507.004 230.33 510.425 223C510.914 222.023 512.869 220.556 513.358 219.09C516.779 212.248 519.711 200.031 518.734 193.678C518.245 192.212 516.778 191.235 516.29 189.769V190.257C515.312 188.791 513.846 186.347 512.38 185.37C507.493 182.438 503.095 182.438 496.742 183.904C491.366 184.882 486.479 187.814 482.081 189.769C480.614 190.746 475.24 193.189 474.75 193.678C471.33 194.655 471.33 191.723 465.465 196.121C460.578 199.542 455.202 216.647 452.27 223C449.827 228.376 445.428 234.24 442.985 240.104C432.233 261.119 423.926 282.133 414.152 303.636C411.609 308.722 408.139 314.866 405.19 320.968C404.63 320.345 404.693 319.205 402.594 318.785C400.151 318.297 395.264 322.206 393.309 324.161C381.092 333.935 368.386 344.686 355.191 350.551C346.309 355.226 338.32 359.898 329.943 363.717V331.827H346.695C347.215 330.885 347.667 330.069 348.033 329.403C348.543 328.362 349.013 327.47 349.392 326.771C350.027 325.601 350.638 324.546 351.142 323.697C353.617 312.922 358.047 303.544 360.631 298.266C362.453 294.545 364.329 290.988 365.825 288.166C367.239 285.496 368.23 283.631 369.044 282.032C377.13 264.158 386.891 240.182 397.769 218.715C400.358 212.965 403.285 208.107 404.672 205.778C405.71 204.037 406.194 203.234 406.662 202.411C406.774 202.214 406.849 202.073 406.897 201.984C406.997 201.737 407.371 200.817 408.287 198.465C408.732 197.32 409.286 195.891 409.909 194.319H385.452C391.174 185.813 396.957 177.43 402.106 167.776C404.549 162.889 409.925 154.094 410.903 149.695C411.88 146.763 410.902 142.364 411.391 139.921C411.391 136.989 412.368 134.056 412.857 131.124C412.857 125.748 410.902 122.816 406.993 119.884C406.504 118.906 404.55 116.953 404.061 116.952C403.572 116.464 402.595 117.44 401.618 117.44C401.129 117.44 401.128 116.463 401.128 116.463C399.662 114.997 397.219 114.02 394.287 114.02C393.275 114.02 392.208 114.114 391.104 114.281C392.82 109.92 394.886 105.887 396.86 102.462C399.409 88.1857 406.407 77.592 410.422 72.21C416.035 64.6867 422.453 58.6177 427.791 54.2373C440.775 42.4051 461.296 30.0305 478.265 21.2705C487.971 16.26 498.497 11.4044 508.619 7.66797C517.218 4.4935 530.982 0 545.124 0H547.203ZM408.85 468.51C408.836 468.52 408.82 468.533 408.755 468.578C408.73 468.596 408.691 468.622 408.646 468.654C408.924 468.464 409.007 468.399 408.85 468.51ZM545.124 50C526.064 50 475.24 77.856 460.579 92.0283C453.737 97.404 445.429 106.2 445.917 114.02C445.917 114.997 448.36 115.486 447.872 117.44C447.872 118.418 444.452 121.349 443.474 122.327C441.031 125.748 438.098 130.636 437.121 134.057C437.12 134.546 436.632 138.455 436.632 138.455C436.633 138.944 438.587 140.899 438.098 142.364L443.962 143.342L443.474 144.319C444.941 144.319 448.849 144.319 449.827 144.808C450.804 144.808 453.248 148.717 453.737 149.206C453.759 149.195 454.72 148.718 455.203 148.718C455.691 149.207 455.691 150.183 456.668 150.672C460.578 153.115 464.977 153.115 469.864 153.115C470.345 153.596 470.352 154.078 470.352 154.093C472.307 154.581 481.104 151.161 483.547 150.184C485.013 149.695 487.456 149.206 488.922 148.229C489.407 147.743 489.893 146.777 489.9 146.763C490.877 146.274 491.855 146.762 492.343 146.273C492.351 146.244 492.836 144.315 493.321 143.83C493.81 142.364 496.254 141.386 497.231 139.432C498.208 137.966 498.697 136.011 499.674 134.545C504.073 130.147 515.802 123.793 521.177 119.884C523.62 117.929 523.621 116.463 526.064 115.485C527.042 114.995 537.793 104.246 539.748 102.291C540.725 100.825 545.124 97.4042 546.101 96.4268C546.59 95.4494 546.589 93.9827 547.078 92.5166C547.536 91.6001 548.854 90.684 549.419 89.7676L549.522 89.585C552.836 85.3242 556.608 79.2288 558.618 73.5205L558.807 72.9688C561.251 67.5932 561.739 62.7062 560.273 57.8193C558.318 53.9098 550.988 50.4888 545.124 50ZM478.66 140.898C478.66 140.412 480.594 141.376 480.615 141.387C480.615 141.875 480.127 143.341 480.126 143.83L477.683 144.319L478.66 140.898Z" fill="white"/>
<path d="M399.122 340.543C397.845 343.769 393.934 349.019 392.649 352.017C388.739 359.347 384.34 366.677 381.897 374.008C381.408 374.985 378.965 381.339 378.965 381.339C378.966 381.827 380.431 381.827 379.943 381.827C379.943 382.804 377.988 384.76 377.499 386.226C376.033 391.112 375.056 396.488 373.101 401.375C371.146 406.262 367.725 409.683 366.748 415.059C366.748 416.036 366.748 420.435 367.237 420.924C367.726 421.901 369.191 421.412 369.68 421.9C371.145 422.389 371.146 424.829 371.146 424.833C371.635 425.322 373.1 424.833 373.589 425.321L373.101 427.766L378.476 426.788C378.382 427.117 378.316 427.391 378.274 427.618C375.393 429.718 372.464 431.729 369.516 433.596V443.329L377.667 459.633L338.727 465.195V479.231H300.532L293.689 482.652H287.715C287.263 482.757 286.662 482.894 286.008 483.028C285.573 483.118 284.72 483.289 283.668 483.459C283.139 483.545 282.276 483.677 281.213 483.797C280.668 483.859 279.939 483.932 279.079 483.993C278.255 484.051 277.025 484.118 275.533 484.118C272.763 484.118 270.065 483.858 268.238 483.635C264.828 484.272 262.464 484.402 261.995 484.439C258.596 484.712 255.479 484.708 253.238 484.653C249.699 484.567 244.364 484.248 239.356 483.338L238.36 483.147L236.375 482.75L234.429 482.194C231.672 481.407 227.39 480.089 222.497 477.683C218.011 476.083 213.333 473.707 208.83 470.28C205.555 467.788 202.746 465.025 200.363 462.125C199.24 460.817 198.353 459.703 197.915 459.145C197.27 458.325 196.098 456.807 194.874 454.99C194.322 454.172 193.126 452.363 191.873 449.997C191.416 449.135 190.697 447.724 189.927 445.901C189.497 445.136 189.127 444.43 188.809 443.799C188.804 443.791 188.799 443.783 188.793 443.775C186.36 440.382 182.49 434.67 179.437 427.307C175.739 418.388 174.315 409.849 173.828 402.051L173.779 401.272L173.754 400.493C173.67 397.804 173.707 395.174 173.843 392.61C176.075 390.889 178.376 388.669 180.954 388.669L180.465 387.203C182.42 388.18 183.886 385.737 185.352 385.248C186.818 384.271 190.728 383.293 191.706 382.805C192.194 382.316 192.194 381.339 192.683 381.339C192.683 380.85 196.592 381.339 199.036 379.873C204.9 375.963 211.253 372.053 217.118 368.144C218.095 367.166 219.073 367.167 220.05 366.189L220.539 367.166C221.516 364.234 223.96 364.723 224.937 364.234C226.403 363.257 231.29 356.904 234.71 354.949C236.521 353.656 237.372 353.182 238.353 352.59C231.518 368.198 223.242 383.322 223.73 398.932C224.219 406.751 226.174 410.172 230.083 415.548C230.572 416.525 231.549 416.525 232.527 417.991C233.015 418.968 233.016 421.411 233.993 421.9C234.481 422.389 235.948 422.389 236.437 422.878C236.925 423.367 235.459 425.321 235.948 426.299C235.948 426.788 238.392 429.72 238.88 430.209C239.369 431.186 240.835 430.209 241.324 430.209C242.79 432.164 244.745 433.141 248.166 434.118C250.609 434.607 258.429 435.096 260.383 434.118C261.849 433.141 262.826 431.187 264.781 431.187C265.269 431.187 264.781 432.163 265.27 432.163C266.186 432.621 273.115 433.939 275.186 434.102L275.533 434.118C275.991 434.118 280.743 432.83 281.739 432.669L281.885 432.652C282.863 432.164 284.818 429.72 285.795 429.231C287.75 428.254 288.238 429.231 288.727 429.231C288.727 428.743 288.728 427.765 290.194 426.788C290.683 426.299 291.66 426.299 292.637 425.811C295.569 423.856 298.501 420.435 301.922 419.946C300.945 417.991 302.411 418.968 303.877 418.479C304.855 417.502 305.343 416.525 305.832 416.036C308.275 414.57 312.674 413.593 315.118 411.149C316.095 410.661 316.583 409.684 317.072 409.684C318.049 409.195 319.027 410.172 319.516 410.172C319.516 410.159 319.519 409.191 320.004 408.706C320.004 408.217 321.471 408.217 321.959 407.24C326.358 403.819 334.177 396.489 339.064 393.557C353.236 385.737 369.363 370.099 381.581 358.37C384.513 355.927 385.49 353.483 386.957 351.528C388.911 349.574 394.776 345.175 397.219 342.731C397.489 342.461 398.205 341.632 399.122 340.543ZM265.27 473.464C265.508 473.588 265.868 473.769 266.332 473.99C265.88 473.768 265.498 473.573 265.27 473.454V473.464ZM459.149 321.67C460.166 334.216 456.412 344.181 453.797 349.605C451.121 355.158 447.87 359.597 445.846 362.208C443.692 365.106 441.124 368.215 440.271 369.255C439.24 370.511 435.276 375.384 432.574 378.086L432.575 378.087C430.508 380.153 428.451 381.93 427.269 382.936C426.298 383.762 425.308 384.579 424.462 385.273C422.391 388.062 419.659 391.299 416.079 394.596C416.088 394.574 416.096 394.553 416.106 394.533C416.595 393.067 417.573 391.113 418.55 389.646C420.505 385.737 423.437 379.873 425.392 375.475C429.302 367.167 431.256 360.813 438.098 353.972C444.94 346.152 449.827 337.844 454.225 328.07C454.225 327.582 455.202 327.582 455.691 326.604C456.927 325.121 458.069 323.449 459.149 321.67ZM388.105 262.965C388.081 262.973 388.078 262.975 388.07 262.978C388.085 262.972 388.107 262.964 388.134 262.954C388.123 262.958 388.113 262.962 388.105 262.965ZM437.121 134.057C437.12 134.546 436.632 138.455 436.632 138.455C436.633 138.944 438.587 140.899 438.098 142.364L443.962 143.342L443.474 144.319C444.94 144.319 448.849 144.319 449.827 144.808C450.804 144.808 453.248 148.717 453.737 149.206C453.759 149.195 454.72 148.718 455.203 148.718C455.691 149.207 455.691 150.183 456.668 150.672C458.07 151.548 459.535 152.108 461.062 152.469C460.808 155.146 460.295 158.69 459.192 162.686C457.851 167.811 456.054 171.973 455.102 174.102C453.783 177.051 452.375 179.801 451.283 181.873C450.182 183.96 449.021 186.071 448.26 187.466C447.337 189.158 446.972 189.849 446.828 190.138L446.533 190.726L446.223 191.306C441.095 200.922 435.679 209.207 431.125 216.005C426.465 222.963 423.155 227.736 419.917 233.005C419.785 233.288 419.674 233.529 419.355 234.216C419.071 234.827 418.576 235.889 417.994 237.053C415.288 242.465 411.94 246.799 408.549 250.222C407.809 251.275 407.031 252.303 406.213 253.303C405.574 254.084 404.977 254.764 404.464 255.33C400.216 261.118 396.996 265.499 394.504 269.299C399.35 268.599 405.224 268.416 411.708 269.622L412.401 269.756L413.473 269.981C417.452 270.859 422.059 272.335 426.827 274.825C422.661 284.359 418.555 293.948 414.152 303.636C411.609 308.722 408.139 314.866 405.19 320.968C404.63 320.345 404.693 319.205 402.594 318.785C400.151 318.297 395.264 322.206 393.309 324.161C381.092 333.935 368.386 344.686 355.191 350.551C345.906 355.438 337.598 360.325 328.801 364.234C317.072 370.099 316.583 369.122 305.343 369.61C300.945 370.099 296.057 371.565 292.148 371.076C295.08 365.7 288.727 359.836 291.66 355.438C292.515 354.582 292.996 354.475 293.43 354.135L293.615 353.972C295.081 352.994 308.275 328.559 310.23 324.649C322.936 302.169 331.245 279.689 343.462 257.209C345.173 254.216 345.386 254.215 346.722 252.625L347.372 251.833C348.349 250.367 348.838 247.923 349.815 246.457C354.213 239.127 360.078 231.308 365.454 223.978C366.828 222.145 367.343 222.03 367.805 221.218L367.897 221.045C368.813 220.129 369.73 217.494 370.646 216.363L370.83 216.158C371.288 215.7 372.605 215.671 373.17 214.864L373.273 214.692C374.189 212.86 375.105 210.597 376.424 208.309L376.694 207.851C385.002 194.167 394.287 182.437 402.106 167.776C404.473 163.042 409.592 154.639 410.798 150.12L410.903 149.695C411.88 146.763 410.902 142.364 411.391 139.921C411.391 136.989 412.368 134.056 412.857 131.124C412.857 125.748 410.902 122.816 406.993 119.884C406.504 118.906 404.55 116.953 404.061 116.952C403.572 116.464 402.595 117.44 401.618 117.44L401.531 117.43C401.128 117.322 401.128 116.463 401.128 116.463C399.662 114.997 397.219 114.02 394.287 114.02C386.956 114.02 376.694 118.907 370.83 121.351C369.363 121.839 367.897 122.328 366.919 122.816C361.055 125.749 350.303 134.056 345.416 137.966C333.199 149.206 319.516 175.107 312.185 189.279C308.275 196.61 307.298 201.497 304.366 208.339C302.411 212.737 300.945 217.624 298.99 222.022C292.637 236.195 283.841 248.413 278.954 262.585C278.465 263.074 277.487 263.073 276.999 264.051C273.578 268.938 272.111 274.803 270.157 279.689L270.068 279.907C267.041 281.678 264.173 283.616 261.589 285.554C249.372 294.35 238.132 303.635 226.892 312.432C220.539 317.319 214.674 323.183 208.321 328.559C202.087 334.136 195.027 339.382 187.437 343.892C189.548 339.143 191.497 334.948 192.583 332.465L192.848 331.858L193.129 331.26C204.029 308.039 214.379 284.505 223.733 261.119C223.802 260.947 223.951 260.553 224.446 259.158C224.84 258.047 225.565 255.98 226.388 253.85C227.924 249.874 230.557 243.604 234.966 236.95C235.287 236.448 235.615 235.954 235.95 235.469C238.915 228.744 242.041 222.911 244.542 218.332C248.803 210.533 251.192 206.395 253.316 201.676C253.516 201.22 253.828 200.43 254.761 197.896C255.472 195.966 256.779 192.377 258.409 188.643L258.672 188.017C259.236 186.645 259.51 185.74 260.975 181.752C262.47 177.683 264.538 172.429 267.855 166.153C271.586 158.943 277.468 147.703 284.238 136.561C290.4 126.419 299.909 111.893 311.564 101.17L312.834 100.001L314.182 98.9229C317.823 96.01 332.978 83.8852 344.559 78.0947L345.484 77.6436C348.298 76.3058 351.178 75.2291 353.025 74.583C355.509 73.5139 360.576 71.3531 364.976 69.7588C370.189 67.8701 381.451 64.0196 394.287 64.0195C401.963 64.0195 410.669 65.4827 419.124 69.2217C420.621 69.7008 422.093 70.2496 423.536 70.8652C426.181 71.9633 427.855 72.9269 428.308 73.1748C431.472 74.9062 433.818 76.629 435.029 77.5547C437.603 79.5232 439.606 81.4205 440.882 82.6963C441.253 83.0675 441.98 83.7939 442.927 84.834C446.501 88.1623 450.417 92.5341 453.843 98.1523C449.292 102.979 445.587 108.723 445.917 114.02C445.917 114.997 448.36 115.486 447.872 117.44C447.872 118.418 444.452 121.349 443.474 122.327C441.031 125.748 438.098 130.636 437.121 134.057Z" fill="white"/>
<path d="M177.533 171.534L178.535 171.543C181.058 171.587 184.772 171.774 187.371 171.937C189.068 172.043 191.308 172.199 193.434 172.421C194.372 172.519 196.183 172.719 198.232 173.077C199.144 173.237 201.262 173.624 203.832 174.362C205.092 174.724 207.454 175.449 210.279 176.69C211.754 177.339 216.256 179.331 221.322 183.35C225.877 186.005 230.467 189.541 234.696 194.24C235.846 195.518 236.891 196.799 237.842 198.056C238.249 198.353 238.662 198.663 239.079 198.987C247.109 205.232 251.806 212.623 254.527 218.533C256.502 222.824 257.595 226.721 258.123 228.772C258.224 229.144 258.321 229.513 258.412 229.879C260.555 228.965 262.756 228.106 265.011 227.319C271.232 224.966 279.153 222.848 288.956 222.848H298.614C292.293 236.671 283.745 248.689 278.953 262.585C278.465 263.074 277.487 263.073 276.998 264.051C273.578 268.938 272.111 274.803 270.157 279.689C270.127 279.762 270.097 279.834 270.068 279.907C267.04 281.678 264.173 283.616 261.589 285.554C249.372 294.35 238.132 303.635 226.892 312.432C220.539 317.319 214.674 323.183 208.321 328.559C189.75 345.174 163.849 358.858 138.437 358.858C133.55 358.858 129.64 357.881 124.265 356.415H120.355L117.422 353.482C116.933 352.016 115.957 349.573 116.446 347.618C116.446 347.128 117.911 343.22 117.911 343.22C119.377 341.754 120.844 343.22 122.31 343.22C124.265 343.22 130.618 343.221 132.573 342.243C133.55 341.754 135.993 339.799 137.459 339.799C138.925 339.31 139.903 340.288 141.369 339.799C141.858 339.799 141.858 339.311 142.346 338.822C150.654 335.401 161.895 330.514 168.737 324.649C169.714 324.16 170.202 322.205 170.691 321.717C171.668 321.228 173.135 321.229 173.623 321.229C174.112 320.74 174.601 319.273 175.089 318.296C178.999 314.386 182.42 312.431 185.841 308.033C186.33 307.057 187.307 307.544 187.307 304.612C188.773 305.59 189.75 304.124 191.216 302.658C191.705 302.658 192.683 302.169 193.171 302.169C193.162 302.151 192.683 301.187 192.683 300.703C193.661 299.726 197.569 296.794 199.035 294.839C202.456 288.974 205.877 281.644 208.321 275.779C208.809 274.802 210.275 272.848 210.764 271.87C211.253 269.915 211.253 267.961 211.742 266.006C211.742 265.517 210.276 261.118 210.276 259.652C209.787 254.277 211.254 246.457 209.787 241.57C208.81 237.661 208.321 238.638 205.877 237.172C204.411 236.194 200.503 232.286 199.525 230.819C196.593 224.955 195.126 226.909 190.728 223.978C190.239 223.489 190.239 222.511 190.239 222.511C189.744 222.022 178.998 221.534 177.533 221.534C171.179 223 155.541 229.841 149.188 233.751C147.233 235.217 145.278 237.172 143.324 238.149C141.369 239.615 138.436 240.104 135.504 241.57C123.775 248.412 93.4767 283.109 83.7025 294.35C68.5528 311.454 55.8463 323.672 50.9593 345.175C49.0045 352.505 49.9819 368.144 54.3802 373.031L54.4749 373.119C55.4791 374.008 57.3435 374.024 58.2904 374.497C58.7786 374.986 58.29 375.964 59.2669 376.452L62.2611 377.185C63.7881 377.551 65.376 377.918 65.6205 377.918C68.0639 378.407 66.5981 379.873 67.5755 381.339C67.5758 381.825 68.5429 384.245 68.5531 384.271C69.0418 384.759 70.5077 383.782 70.9964 383.782C70.9964 384.271 70.9962 384.759 71.4847 385.248C76.3717 389.646 74.4174 394.533 77.8382 398.932C79.3043 400.886 80.2813 402.353 81.7474 404.308C82.236 404.308 82.7247 404.308 83.2132 404.796C83.2132 404.796 82.7247 405.774 83.2132 406.263C83.7019 406.751 87.1235 407.728 88.1009 408.217C95.4315 410.66 112.047 415.059 119.867 414.082C126.708 413.105 130.129 410.172 135.993 408.217C140.392 406.751 144.79 406.262 149.677 404.308C152.121 402.842 155.542 400.398 158.474 399.421C159.442 399.421 160.411 399.901 160.428 399.909C160.917 399.42 160.428 398.932 161.406 397.954C162.383 397.465 164.338 397.466 165.316 396.978C166.294 396.489 170.691 394.534 171.668 394.045C174.6 392.579 177.533 388.669 180.953 388.669L180.465 387.203C182.42 388.18 183.886 385.737 185.352 385.248C186.818 384.271 190.728 383.293 191.705 382.805C192.194 382.316 192.194 381.339 192.683 381.339C192.683 380.85 196.592 381.339 199.035 379.873C204.9 375.963 211.253 372.053 217.118 368.144C218.095 367.166 219.073 367.167 220.05 366.189L220.538 367.166C221.516 364.234 223.959 364.723 224.937 364.234C226.403 363.257 231.289 356.904 234.71 354.949C236.521 353.656 237.372 353.182 238.353 352.59C231.518 368.198 223.242 383.322 223.73 398.932C224.219 406.751 226.174 410.172 230.083 415.548C230.572 416.525 231.549 416.525 232.527 417.991C233.015 418.968 233.016 421.411 233.993 421.9C234.481 422.389 235.948 422.389 236.437 422.878C236.925 423.367 235.459 425.321 235.948 426.299C235.948 426.788 238.392 429.72 238.88 430.209C239.369 431.186 240.835 430.209 241.324 430.209C242.79 432.164 244.745 433.141 248.165 434.118C248.773 434.24 249.713 434.361 250.812 434.46L249.867 437.294L250.326 438.669H249.41L229.801 497.493L200.388 438.669H194.219C194.156 438.701 194.093 438.734 194.029 438.766L194.03 438.767C193.324 439.119 192.684 439.42 192.387 439.56C192.004 439.739 191.617 439.918 191.276 440.074C191.096 440.157 190.909 440.241 190.72 440.327L170.3 460.747L157.386 454.29C156.247 454.592 155.262 454.836 154.469 455.029C153.021 455.382 152.583 455.482 152.061 455.611C151.88 455.696 151.648 455.802 151.331 455.95C150.774 456.211 149.83 456.655 148.815 457.112C144.082 459.242 136.754 462.177 126.937 463.579L126.503 463.641L126.068 463.695C112.911 465.34 99.3199 462.594 93.4251 461.344C85.9507 459.758 78.6271 457.713 73.3226 455.991L72.2894 455.651L68.9183 454.527L68.4789 454.308H56.7474L44.0833 437.423C43.2726 436.42 42.5167 435.412 41.8158 434.399L41.7474 434.308C40.6219 432.807 39.6991 431.512 39.1058 430.682C38.521 429.863 38.2208 429.446 37.9076 429.026C35.5708 425.942 33.668 422.814 32.1224 419.743C31.8002 419.103 31.5007 418.472 31.2162 417.854C30.2744 417.222 29.335 416.544 28.4017 415.82C25.6293 414.096 22.5937 411.856 19.5951 408.948L19.0247 408.386L18.0951 407.456L17.2162 406.479C8.86379 397.199 5.33625 387.061 3.81967 382C1.99732 375.919 1.04286 370.009 0.541349 365.05C-0.326423 356.469 -0.437042 344.568 2.39975 333.257C10.9168 297.015 34.421 274.566 46.2162 261.262C51.235 255.491 61.6248 243.588 72.4124 232.094C77.8706 226.278 83.8203 220.149 89.4808 214.796C94.1422 210.387 101.902 203.287 110.311 198.382L111.702 197.569L113.144 196.849C114.972 195.935 116.646 195.202 118.038 194.631C118.391 194.356 118.776 194.06 119.188 193.751L121.027 192.373L122.984 191.168C129.231 187.323 137.324 183.516 143.48 180.849C149.105 178.411 158.263 174.667 166.289 172.814L171.838 171.534H177.533ZM80.9515 454.308C81.6213 454.323 81.9664 454.315 81.8861 454.31L81.7474 454.308H80.9515ZM138.102 444.648C138.108 444.651 138.114 444.653 138.119 444.656L138.085 444.64L138.102 444.648ZM9.05404 382.239C9.06301 382.303 9.07471 382.381 9.08822 382.472C9.07611 382.388 9.06422 382.31 9.05404 382.239ZM344.184 255.974C350.142 266.811 350.918 277.105 351.078 281.442C351.331 288.257 350.346 294.416 350.183 295.557L349.911 297.458L349.494 299.332C346.979 310.65 341.337 319.683 338.988 323.329C335.799 328.278 332.226 332.907 329.029 336.561L327.933 337.813L326.755 338.991C324.165 341.582 321.533 344.052 319.586 345.881C317.841 347.521 316.648 348.644 315.709 349.559C315.673 349.602 315.633 349.648 315.591 349.698C314.86 350.568 314.157 351.432 312.925 352.926C311.915 354.151 310.449 355.92 308.976 357.588C308.234 358.428 307.197 359.578 305.996 360.801C305.563 361.243 304.757 362.056 303.658 363.065L302.987 364.409L296.185 369.51L295.242 370.769L294.824 371.144C293.896 371.192 292.998 371.182 292.148 371.076C295.08 365.7 288.727 359.836 291.66 355.438C292.637 354.46 293.126 354.46 293.615 353.972C295.081 352.994 308.275 328.559 310.23 324.649C322.936 302.169 331.245 279.689 343.462 257.209C343.738 256.726 343.975 256.32 344.184 255.974ZM51.2581 337.767C51.2344 337.776 51.2138 337.785 51.1966 337.792C51.1513 337.81 51.1212 337.823 51.1185 337.824C51.0319 337.86 51.1029 337.83 51.2581 337.767ZM149.677 283.11C151.143 282.133 155.052 280.667 156.03 281.644C158.473 285.553 150.165 298.259 146.744 302.169C142.346 307.545 140.88 307.056 135.504 309.988C134.527 310.477 134.039 311.455 133.55 311.943C132.084 312.432 126.708 313.41 125.242 313.898C120.844 313.899 117.423 315.364 118.4 310.478C118.888 307.057 122.798 299.726 125.242 297.282C128.662 293.861 145.279 285.065 149.677 283.11ZM51.4085 337.706C51.4068 337.707 51.4054 337.708 51.4037 337.709C51.3476 337.731 51.2983 337.75 51.2581 337.767C51.302 337.749 51.3529 337.729 51.4085 337.706Z" fill="white"/>
</svg>
