<svg xmlns="http://www.w3.org/2000/svg" width="64" height="64" viewBox="0 0 64 64">
  <rect width="64" height="64" rx="14" fill="#1d1d1d"/>
  <g transform="translate(11.8 12) scale(1.81)">
    <path d="M11.0604 3.92426L13.3759 0L13.8872 4.52755L17.5989 1.87882L16.2257 6.22826L20.6958 5.3147L17.6736 8.72761L22.1265 9.71585L17.9781 11.6062L21.6381 14.3181L17.0818 14.3526L19.3283 18.3228L15.1455 16.5014L15.5879 21.0405L12.5083 17.6793L11.0604 22L9.61824 17.6793L6.53859 21.0405L6.97526 16.5014L2.79819 18.3228L5.03898 14.3526L0.482699 14.3181L4.14841 11.6062L6.52373e-05 9.71585L4.44718 8.72761L1.43073 5.3147L5.89508 6.22826L4.52187 1.87882L8.23355 4.52755L8.75065 0L11.0604 3.92426Z" fill="#FFE585"/>
  </g>
</svg>
