<svg width="287" height="279" viewBox="0 0 287 279" fill="none" xmlns="http://www.w3.org/2000/svg">
<path d="M50.0429 279C44.7286 279 39.5619 277.967 34.5429 275.9C29.5238 274.129 24.9476 271.324 20.8143 267.486C16.9762 263.648 13.8762 258.924 11.5143 253.314C9.15238 247.41 7.97143 240.471 7.97143 232.5C7.97143 222.462 10.0381 214.048 14.1714 207.257C18.6 200.171 24.0619 194.119 30.5571 189.1C37.0524 184.081 43.9905 179.948 51.3714 176.7C59.0476 173.157 66.1333 169.91 72.6286 166.957C79.1238 163.71 84.4381 160.462 88.5714 157.214C93 153.967 95.2143 150.129 95.2143 145.7C95.2143 140.09 92.8524 134.924 88.1286 130.2C83.4048 125.181 77.5 120.31 70.4143 115.586C63.3286 110.567 55.6524 105.548 47.3857 100.529C39.4143 95.5095 31.8857 90.0476 24.8 84.1429C17.7143 77.9429 11.8095 71.3 7.08571 64.2143C2.3619 56.8333 0 48.5667 0 39.4143C0 28.1952 3.83809 18.8952 11.5143 11.5143C19.1905 3.83809 31 0 46.9429 0C54.0286 0 61.2619 0.7381 68.6429 2.21429C76.0238 3.69048 83.5524 5.31428 91.2286 7.0857C99.2 8.56189 107.171 10.0381 115.143 11.5143C123.114 12.9905 131.233 13.7286 139.5 13.7286C147.471 13.7286 155.295 12.9905 162.971 11.5143C170.648 10.0381 178.324 8.56189 186 7.0857C193.676 5.31428 201.352 3.69048 209.029 2.21429C216.705 0.7381 224.529 0 232.5 0C238.995 0 245.048 1.18095 250.657 3.54284C256.267 5.90475 261.138 9.29999 265.271 13.7286C269.7 17.8619 273.095 22.7333 275.457 28.3429C277.819 33.9524 279 40.0047 279 46.5C279 52.9952 277.819 59.0476 275.457 64.6571C273.095 70.2667 269.7 75.1381 265.271 79.2714C261.138 83.4048 256.267 86.8 250.657 89.4571C245.048 91.819 238.995 93 232.5 93C224.233 93 216.557 91.2286 209.471 87.6857C202.386 83.8476 195.005 79.8619 187.329 75.7286C179.948 71.3 171.533 67.3143 162.086 63.7714C152.638 59.9333 141.271 58.0143 127.986 58.0143C125.329 58.0143 122.081 58.0143 118.243 58.0143C114.405 57.719 110.714 57.719 107.171 58.0143C103.629 58.3095 100.676 59.1952 98.3143 60.6714C95.9524 61.8524 94.7714 64.0667 94.7714 67.3143C94.7714 70.5619 96.9857 73.3667 101.414 75.7286C106.138 77.7952 111.895 79.8619 118.686 81.9286C125.476 83.9952 132.857 86.2095 140.829 88.5714C149.095 90.9333 156.624 94.1809 163.414 98.3143C170.205 102.152 175.814 107.171 180.243 113.371C184.967 119.276 187.329 126.805 187.329 135.957C187.329 146.881 185.114 155.886 180.686 162.971C176.257 169.762 170.795 175.224 164.3 179.357C157.805 183.49 150.719 186.738 143.043 189.1C135.367 191.462 128.281 193.529 121.786 195.3C115.29 197.071 109.829 198.99 105.4 201.057C100.971 203.124 98.7571 205.929 98.7571 209.471C98.7571 212.719 100.381 215.229 103.629 217C106.876 218.476 110.714 219.51 115.143 220.1C119.571 220.69 124 220.986 128.429 220.986C132.857 220.986 136.4 220.986 139.057 220.986C153.229 220.986 164.89 219.214 174.043 215.671C183.195 211.833 191.314 207.848 198.4 203.714C205.486 199.286 212.129 195.3 218.329 191.757C224.824 187.919 232.205 186 240.471 186C246.967 186 253.019 187.181 258.629 189.543C264.238 191.905 269.11 195.3 273.243 199.729C277.671 203.862 281.067 208.733 283.429 214.343C285.79 219.952 286.971 226.005 286.971 232.5C286.971 238.995 285.79 245.048 283.429 250.657C281.067 256.267 277.671 261.138 273.243 265.271C269.11 269.405 264.238 272.652 258.629 275.014C253.019 277.671 246.967 279 240.471 279C232.5 279 224.676 278.262 217 276.786C209.324 275.31 201.648 273.833 193.971 272.357C186.295 270.586 178.619 268.962 170.943 267.486C163.267 266.009 155.443 265.271 147.471 265.271C139.205 265.271 130.938 266.009 122.671 267.486C114.7 268.962 106.729 270.586 98.7571 272.357C90.7857 273.833 82.6667 275.31 74.4 276.786C66.4286 278.262 58.3095 279 50.0429 279Z" fill="#EDA4B5"/>
</svg>
