<svg preserveAspectRatio="none" width="100%" height="100%" overflow="visible" style="display: block;" viewBox="0 0 75.0001 74.5716" fill="none" xmlns="http://www.w3.org/2000/svg">
<g id="Group">
<path id="Vector" d="M37.4903 13.3017L45.3389 0L47.0723 15.3467L59.6534 6.36848L54.9988 21.1114L70.1507 18.0148L59.9066 29.5832L75.0001 32.933L60.9388 39.3404L73.3446 48.5329L57.9006 48.6497L65.5155 62.1073L51.3374 55.9335L52.837 71.3191L42.3981 59.926L37.4903 74.5716L32.602 59.926L22.1631 71.3191L23.6433 55.9335L9.48462 62.1073L17.08 48.6497L1.63601 48.5329L14.0614 39.3404L6.52373e-05 32.933L15.0741 29.5832L4.84946 18.0148L19.9819 21.1114L15.3273 6.36848L27.9084 15.3467L29.6612 0L37.4903 13.3017Z" fill="var(--fill-0, #FFE585)"/>
</g>
</svg>
