<svg width="100%" height="100%" viewBox="0 0 100 100" fill="none" style="display: block;" xmlns="http://www.w3.org/2000/svg">
<path d="M 50.0 2.0 L 56.387 19.951 L 69.523 6.15 L 68.057 25.147 L 85.671 17.882 L 76.604 34.64 L 95.651 35.167 L 80.552 46.789 L 97.737 55.017 L 79.216 59.493 L 91.569 74.0 L 72.829 70.556 L 78.214 88.833 L 62.495 78.064 L 59.98 96.951 L 50.0 80.72 L 40.02 96.951 L 37.505 78.064 L 21.786 88.833 L 27.171 70.556 L 8.431 74.0 L 20.784 59.493 L 2.263 55.017 L 19.448 46.789 L 4.349 35.167 L 23.396 34.64 L 14.329 17.882 L 31.943 25.147 L 30.477 6.15 L 43.613 19.951 Z" fill="var(--fill-0, #FFE585)"/>
</svg>
