<svg width="639" height="72" viewBox="0 0 639 72" fill="none" xmlns="http://www.w3.org/2000/svg">
<path d="M38.2605 27V8.09091H51.8884V12.2273H43.3941V15.4773H51.1867V19.6136H43.3941V22.8636H51.8515V27H38.2605ZM57.2344 8.09091H63.6236L68.0185 18.8011H68.2401L72.6349 8.09091H79.0241V27H74.0014V16.0682H73.8537L69.6435 26.8523H66.6151L62.4048 15.9943H62.2571V27H57.2344V8.09091ZM84.257 27V8.09091H92.4559C93.8962 8.09091 95.1057 8.2848 96.0844 8.67259C97.0693 9.06037 97.811 9.60819 98.3096 10.3161C98.8143 11.0239 99.0667 11.858 99.0667 12.8182C99.0667 13.5137 98.9128 14.1477 98.605 14.7202C98.3034 15.2926 97.8787 15.7727 97.3309 16.1605C96.7831 16.5421 96.1429 16.8068 95.4104 16.9545V17.1392C96.2229 17.17 96.9616 17.3762 97.6263 17.7578C98.2911 18.1333 98.8205 18.6534 99.2144 19.3182C99.6084 19.9768 99.8053 20.7524 99.8053 21.6449C99.8053 22.679 99.5345 23.5992 98.9928 24.4055C98.4573 25.2119 97.6941 25.8459 96.703 26.3075C95.712 26.7692 94.5302 27 93.1576 27H84.257ZM89.3905 22.9006H91.7911C92.6529 22.9006 93.2992 22.7405 93.73 22.4205C94.1609 22.0942 94.3763 21.6141 94.3763 20.9801C94.3763 20.5369 94.2748 20.1615 94.0717 19.8537C93.8685 19.5459 93.5792 19.312 93.2038 19.152C92.8344 18.992 92.3882 18.9119 91.865 18.9119H89.3905V22.9006ZM89.3905 15.7358H91.4957C91.945 15.7358 92.342 15.665 92.6867 15.5234C93.0314 15.3819 93.2992 15.1787 93.49 14.9141C93.687 14.6432 93.7854 14.3139 93.7854 13.9261C93.7854 13.3414 93.5762 12.8951 93.1576 12.5874C92.739 12.2734 92.2097 12.1165 91.5695 12.1165H89.3905V15.7358ZM104.424 27V8.09091H118.052V12.2273H109.558V15.4773H117.35V19.6136H109.558V22.8636H118.015V27H104.424ZM130.674 27H123.398V8.09091H130.6C132.545 8.09091 134.225 8.46946 135.641 9.22656C137.063 9.97751 138.158 11.0608 138.928 12.4766C139.703 13.8861 140.091 15.5758 140.091 17.5455C140.091 19.5152 139.707 21.2079 138.937 22.6236C138.168 24.0331 137.078 25.1165 135.669 25.8736C134.259 26.6245 132.594 27 130.674 27ZM128.532 22.642H130.489C131.425 22.642 132.222 22.4912 132.88 22.1896C133.545 21.888 134.05 21.3679 134.394 20.6293C134.745 19.8906 134.921 18.8627 134.921 17.5455C134.921 16.2282 134.742 15.2003 134.385 14.4616C134.034 13.723 133.517 13.2029 132.834 12.9013C132.157 12.5997 131.326 12.4489 130.341 12.4489H128.532V22.642ZM152.542 27H145.266V8.09091H152.468C154.413 8.09091 156.094 8.46946 157.509 9.22656C158.931 9.97751 160.027 11.0608 160.796 12.4766C161.572 13.8861 161.96 15.5758 161.96 17.5455C161.96 19.5152 161.575 21.2079 160.805 22.6236C160.036 24.0331 158.947 25.1165 157.537 25.8736C156.127 26.6245 154.462 27 152.542 27ZM150.4 22.642H152.357C153.293 22.642 154.09 22.4912 154.749 22.1896C155.413 21.888 155.918 21.3679 156.263 20.6293C156.614 19.8906 156.789 18.8627 156.789 17.5455C156.789 16.2282 156.611 15.2003 156.254 14.4616C155.903 13.723 155.386 13.2029 154.702 12.9013C154.025 12.5997 153.194 12.4489 152.21 12.4489H150.4V22.642ZM167.135 27V8.09091H180.763V12.2273H172.268V15.4773H180.061V19.6136H172.268V22.8636H180.726V27H167.135ZM193.384 27H186.109V8.09091H193.31C195.255 8.09091 196.936 8.46946 198.351 9.22656C199.773 9.97751 200.869 11.0608 201.638 12.4766C202.414 13.8861 202.802 15.5758 202.802 17.5455C202.802 19.5152 202.417 21.2079 201.648 22.6236C200.878 24.0331 199.789 25.1165 198.379 25.8736C196.97 26.6245 195.305 27 193.384 27ZM191.242 22.642H193.2C194.135 22.642 194.932 22.4912 195.591 22.1896C196.256 21.888 196.76 21.3679 197.105 20.6293C197.456 19.8906 197.631 18.8627 197.631 17.5455C197.631 16.2282 197.453 15.2003 197.096 14.4616C196.745 13.723 196.228 13.2029 195.545 12.9013C194.868 12.5997 194.037 12.4489 193.052 12.4489H191.242V22.642ZM6.45973 63L0.883024 44.0909H6.60746L9.19268 55.7244H9.34041L12.4058 44.0909H16.9114L19.9768 55.7614H20.1245L22.7097 44.0909H28.4342L22.8575 63H17.9455L14.7325 52.4375H14.5847L11.3717 63H6.45973ZM38.0296 44.0909V63H32.8961V44.0909H38.0296ZM42.7455 48.2273V44.0909H59.1801V48.2273H53.4926V63H48.433V48.2273H42.7455ZM63.9121 63V44.0909H69.0456V51.4773H75.8411V44.0909H80.9746V63H75.8411V55.6136H69.0456V63H63.9121ZM94.1918 63V44.0909H102.354C103.757 44.0909 104.985 44.3679 106.038 44.9219C107.09 45.4759 107.909 46.2545 108.494 47.2578C109.078 48.2611 109.371 49.4337 109.371 50.7756C109.371 52.1297 109.069 53.3023 108.466 54.2933C107.869 55.2843 107.029 56.0476 105.945 56.5831C104.868 57.1186 103.609 57.3864 102.169 57.3864H97.2941V53.3977H101.135C101.738 53.3977 102.252 53.2931 102.677 53.0838C103.108 52.8684 103.437 52.5637 103.665 52.1697C103.899 51.7758 104.016 51.3111 104.016 50.7756C104.016 50.2339 103.899 49.7723 103.665 49.3906C103.437 49.0028 103.108 48.7074 102.677 48.5043C102.252 48.295 101.738 48.1903 101.135 48.1903H99.3253V63H94.1918ZM114.054 63V44.0909H122.216C123.62 44.0909 124.848 44.3464 125.9 44.8572C126.953 45.3681 127.771 46.1037 128.356 47.0639C128.941 48.0241 129.233 49.1752 129.233 50.517C129.233 51.8712 128.932 53.013 128.328 53.9425C127.731 54.8719 126.891 55.5736 125.808 56.0476C124.731 56.5215 123.472 56.7585 122.032 56.7585H117.157V52.7699H120.997C121.601 52.7699 122.115 52.696 122.539 52.5483C122.97 52.3944 123.3 52.1513 123.527 51.8189C123.761 51.4865 123.878 51.0526 123.878 50.517C123.878 49.9754 123.761 49.5353 123.527 49.1967C123.3 48.852 122.97 48.5997 122.539 48.4396C122.115 48.2734 121.601 48.1903 120.997 48.1903H119.188V63H114.054ZM125.134 54.321L129.861 63H124.284L119.668 54.321H125.134ZM152.54 53.5455C152.54 55.6506 152.13 57.4264 151.312 58.8729C150.493 60.3132 149.388 61.4058 147.997 62.1506C146.606 62.8892 145.055 63.2585 143.344 63.2585C141.62 63.2585 140.063 62.8861 138.672 62.1413C137.287 61.3904 136.185 60.2947 135.366 58.8544C134.554 57.4079 134.148 55.6383 134.148 53.5455C134.148 51.4403 134.554 49.6676 135.366 48.2273C136.185 46.7808 137.287 45.6882 138.672 44.9496C140.063 44.2048 141.62 43.8324 143.344 43.8324C145.055 43.8324 146.606 44.2048 147.997 44.9496C149.388 45.6882 150.493 46.7808 151.312 48.2273C152.13 49.6676 152.54 51.4403 152.54 53.5455ZM147.258 53.5455C147.258 52.4129 147.108 51.4588 146.806 50.6832C146.511 49.9015 146.07 49.3106 145.486 48.9105C144.907 48.5043 144.193 48.3011 143.344 48.3011C142.494 48.3011 141.777 48.5043 141.192 48.9105C140.614 49.3106 140.174 49.9015 139.872 50.6832C139.577 51.4588 139.429 52.4129 139.429 53.5455C139.429 54.678 139.577 55.6352 139.872 56.4169C140.174 57.1925 140.614 57.7834 141.192 58.1896C141.777 58.5897 142.494 58.7898 143.344 58.7898C144.193 58.7898 144.907 58.5897 145.486 58.1896C146.07 57.7834 146.511 57.1925 146.806 56.4169C147.108 55.6352 147.258 54.678 147.258 53.5455ZM164.99 63H157.715V44.0909H164.917C166.862 44.0909 168.542 44.4695 169.958 45.2266C171.38 45.9775 172.475 47.0608 173.245 48.4766C174.02 49.8861 174.408 51.5758 174.408 53.5455C174.408 55.5152 174.023 57.2079 173.254 58.6236C172.484 60.0331 171.395 61.1165 169.985 61.8736C168.576 62.6245 166.911 63 164.99 63ZM162.848 58.642H164.806C165.741 58.642 166.538 58.4912 167.197 58.1896C167.862 57.888 168.367 57.3679 168.711 56.6293C169.062 55.8906 169.238 54.8627 169.238 53.5455C169.238 52.2282 169.059 51.2003 168.702 50.4616C168.351 49.723 167.834 49.2029 167.151 48.9013C166.474 48.5997 165.643 48.4489 164.658 48.4489H162.848V58.642ZM190.774 44.0909H195.907V56.2045C195.907 57.6449 195.562 58.8913 194.873 59.9439C194.19 60.9903 193.236 61.7997 192.011 62.3722C190.786 62.9384 189.364 63.2216 187.745 63.2216C186.114 63.2216 184.686 62.9384 183.461 62.3722C182.236 61.7997 181.282 60.9903 180.599 59.9439C179.922 58.8913 179.583 57.6449 179.583 56.2045V44.0909H184.717V55.7614C184.717 56.3461 184.846 56.8693 185.104 57.331C185.363 57.7865 185.72 58.1435 186.176 58.402C186.637 58.6605 187.16 58.7898 187.745 58.7898C188.336 58.7898 188.859 58.6605 189.315 58.402C189.77 58.1435 190.127 57.7865 190.386 57.331C190.644 56.8693 190.774 56.3461 190.774 55.7614V44.0909ZM218.8 51.1818H213.593C213.556 50.7509 213.457 50.3601 213.297 50.0092C213.144 49.6584 212.928 49.3568 212.651 49.1044C212.38 48.8459 212.051 48.6489 211.663 48.5135C211.275 48.3719 210.835 48.3011 210.343 48.3011C209.481 48.3011 208.752 48.5104 208.155 48.929C207.564 49.3475 207.114 49.9477 206.807 50.7294C206.505 51.5111 206.354 52.4498 206.354 53.5455C206.354 54.7027 206.508 55.6721 206.816 56.4538C207.13 57.2294 207.582 57.8142 208.173 58.2081C208.764 58.5959 209.475 58.7898 210.306 58.7898C210.78 58.7898 211.205 58.7313 211.58 58.6143C211.956 58.4912 212.282 58.3158 212.559 58.0881C212.836 57.8603 213.06 57.5864 213.233 57.2663C213.411 56.9401 213.531 56.5739 213.593 56.1676L218.8 56.2045C218.739 57.0047 218.514 57.8203 218.126 58.6513C217.739 59.4761 217.188 60.2393 216.474 60.9411C215.766 61.6366 214.889 62.1967 213.842 62.6214C212.796 63.0462 211.58 63.2585 210.195 63.2585C208.459 63.2585 206.902 62.8861 205.523 62.1413C204.151 61.3965 203.064 60.3009 202.264 58.8544C201.47 57.4079 201.073 55.6383 201.073 53.5455C201.073 51.4403 201.479 49.6676 202.292 48.2273C203.104 46.7808 204.2 45.6882 205.579 44.9496C206.957 44.2048 208.496 43.8324 210.195 43.8324C211.389 43.8324 212.488 43.9955 213.491 44.3217C214.495 44.648 215.375 45.125 216.132 45.7528C216.889 46.3745 217.498 47.1409 217.96 48.0518C218.422 48.9628 218.702 50.0062 218.8 51.1818ZM223.412 48.2273V44.0909H239.847V48.2273H234.159V63H229.1V48.2273H223.412Z" fill="white"/>
<g clip-path="url(#clip0_69_880)">
<path d="M317.554 70.9965C316.221 70.9965 314.925 70.7374 313.666 70.2188C312.407 69.7745 311.259 69.0708 310.222 68.108C309.259 67.1451 308.481 65.96 307.889 64.5526C307.296 63.0715 307 61.3307 307 59.331C307 56.8128 307.518 54.7019 308.555 52.9983C309.666 51.2206 311.036 49.7023 312.666 48.4432C314.295 47.1841 316.036 46.1472 317.888 45.3324C319.813 44.4436 321.591 43.629 323.22 42.8882C324.85 42.0736 326.183 41.2588 327.22 40.4439C328.331 39.6293 328.887 38.6665 328.887 37.5554C328.887 36.148 328.294 34.852 327.109 33.6669C325.924 32.4078 324.443 31.1858 322.665 30.0007C320.887 28.7415 318.962 27.4824 316.888 26.2233C314.888 24.9641 312.999 23.5938 311.222 22.1125C309.444 20.5571 307.963 18.8906 306.778 17.113C305.593 15.2613 305 13.1875 305 10.8914C305 8.07684 305.963 5.74374 307.889 3.89208C309.814 1.96634 312.777 1.00348 316.777 1.00348C318.554 1.00348 320.369 1.18865 322.221 1.55898C324.072 1.92931 325.961 2.33668 327.887 2.78108C329.886 3.15141 331.886 3.52175 333.886 3.89208C335.886 4.26242 337.923 4.44759 339.997 4.44759C341.996 4.44759 343.959 4.26242 345.885 3.89208C347.811 3.52175 349.736 3.15141 351.662 2.78108C353.588 2.33668 355.513 1.92931 357.439 1.55898C359.365 1.18865 361.328 1.00348 363.328 1.00348C364.957 1.00348 366.475 1.29975 367.883 1.89228C369.29 2.48481 370.512 3.33658 371.549 4.44759C372.66 5.48451 373.512 6.70661 374.104 8.11389C374.697 9.52115 374.993 11.0395 374.993 12.669C374.993 14.2984 374.697 15.8168 374.104 17.2241C373.512 18.6314 372.66 19.8535 371.549 20.8904C370.512 21.9273 369.29 22.7791 367.883 23.4457C366.475 24.0382 364.957 24.3345 363.328 24.3345C361.254 24.3345 359.328 23.8901 357.55 23.0013C355.773 22.0384 353.921 21.0385 351.995 20.0016C350.144 18.8906 348.033 17.8907 345.663 17.0019C343.292 16.039 340.441 15.5576 337.108 15.5576C336.441 15.5576 335.627 15.5576 334.664 15.5576C333.701 15.4835 332.775 15.4835 331.886 15.5576C330.998 15.6316 330.257 15.8538 329.664 16.2242C329.072 16.5205 328.775 17.076 328.775 17.8907C328.775 18.7054 329.331 19.4091 330.442 20.0016C331.627 20.52 333.071 21.0385 334.775 21.557C336.478 22.0754 338.33 22.631 340.33 23.2235C342.404 23.816 344.292 24.6307 345.996 25.6677C347.7 26.6305 349.107 27.8896 350.218 29.445C351.403 30.9264 351.995 32.8152 351.995 35.1112C351.995 37.8517 351.44 40.1108 350.329 41.8882C349.218 43.5919 347.848 44.9621 346.218 45.999C344.589 47.0358 342.811 47.8506 340.885 48.4432C338.96 49.0358 337.182 49.5543 335.553 49.9986C333.923 50.4429 332.553 50.9243 331.442 51.4429C330.331 51.9614 329.775 52.6651 329.775 53.5537C329.775 54.3685 330.183 54.9982 330.998 55.4425C331.812 55.8128 332.775 56.0722 333.886 56.2202C334.997 56.3682 336.108 56.4425 337.219 56.4425C338.33 56.4425 339.219 56.4425 339.885 56.4425C343.441 56.4425 346.366 55.9979 348.662 55.1091C350.958 54.1463 352.995 53.1465 354.773 52.1094C356.55 50.9986 358.217 49.9986 359.772 49.1098C361.402 48.1469 363.254 47.6655 365.327 47.6655C366.957 47.6655 368.475 47.9618 369.883 48.5543C371.29 49.1469 372.512 49.9986 373.549 51.1097C374.66 52.1466 375.512 53.3686 376.104 54.7759C376.696 56.1831 376.993 57.7016 376.993 59.331C376.993 60.9604 376.696 62.4789 376.104 63.8861C375.512 65.2935 374.66 66.5155 373.549 67.5523C372.512 68.5894 371.29 69.404 369.883 69.9965C368.475 70.6631 366.957 70.9965 365.327 70.9965C363.328 70.9965 361.365 70.8114 359.439 70.4411C357.513 70.0708 355.588 69.7003 353.662 69.33C351.736 68.8857 349.81 68.4783 347.885 68.108C345.959 67.7374 343.996 67.5523 341.996 67.5523C339.923 67.5523 337.849 67.7374 335.775 68.108C333.775 68.4783 331.775 68.8857 329.775 69.33C327.776 69.7003 325.739 70.0708 323.665 70.4411C321.665 70.8114 319.628 70.9965 317.554 70.9965Z" fill="white"/>
</g>
<path d="M483.412 27V8.09091H496.708V12.2273H488.546V15.4773H495.895V19.6136H488.546V27H483.412ZM501.396 27V8.09091H506.529V22.8636H514.174V27H501.396ZM530.24 8.09091H535.373V20.2045C535.373 21.6449 535.028 22.8913 534.339 23.9439C533.656 24.9903 532.702 25.7997 531.477 26.3722C530.252 26.9384 528.83 27.2216 527.211 27.2216C525.58 27.2216 524.152 26.9384 522.927 26.3722C521.702 25.7997 520.748 24.9903 520.065 23.9439C519.388 22.8913 519.049 21.6449 519.049 20.2045V8.09091H524.183V19.7614C524.183 20.3461 524.312 20.8693 524.571 21.331C524.829 21.7865 525.186 22.1435 525.642 22.402C526.103 22.6605 526.626 22.7898 527.211 22.7898C527.802 22.7898 528.325 22.6605 528.781 22.402C529.236 22.1435 529.593 21.7865 529.852 21.331C530.11 20.8693 530.24 20.3461 530.24 19.7614V8.09091ZM540.613 27V8.09091H554.241V12.2273H545.746V15.4773H553.539V19.6136H545.746V22.8636H554.204V27H540.613ZM575.948 8.09091V27H571.663L564.831 17.0653H564.72V27H559.587V8.09091H563.945L570.666 17.9886H570.814V8.09091H575.948ZM580.659 12.2273V8.09091H597.093V12.2273H591.406V27H586.346V12.2273H580.659ZM447.511 63L441.934 44.0909H447.658L450.244 55.7244H450.391L453.457 44.0909H457.962L461.028 55.7614H461.175L463.761 44.0909H469.485L463.908 63H458.997L455.783 52.4375H455.636L452.423 63H447.511ZM479.081 44.0909V63H473.947V44.0909H479.081ZM483.796 48.2273V44.0909H500.231V48.2273H494.544V63H489.484V48.2273H483.796ZM504.963 63V44.0909H510.097V51.4773H516.892V44.0909H522.026V63H516.892V55.6136H510.097V63H504.963ZM535.243 63V44.0909H543.442C544.882 44.0909 546.091 44.2848 547.07 44.6726C548.055 45.0604 548.797 45.6082 549.295 46.3161C549.8 47.0239 550.052 47.858 550.052 48.8182C550.052 49.5137 549.899 50.1477 549.591 50.7202C549.289 51.2926 548.864 51.7727 548.317 52.1605C547.769 52.5421 547.129 52.8068 546.396 52.9545V53.1392C547.209 53.17 547.947 53.3762 548.612 53.7578C549.277 54.1333 549.806 54.6534 550.2 55.3182C550.594 55.9768 550.791 56.7524 550.791 57.6449C550.791 58.679 550.52 59.5992 549.979 60.4055C549.443 61.2119 548.68 61.8459 547.689 62.3075C546.698 62.7692 545.516 63 544.143 63H535.243ZM540.376 58.9006H542.777C543.639 58.9006 544.285 58.7405 544.716 58.4205C545.147 58.0942 545.362 57.6141 545.362 56.9801C545.362 56.5369 545.261 56.1615 545.057 55.8537C544.854 55.5459 544.565 55.312 544.19 55.152C543.82 54.992 543.374 54.9119 542.851 54.9119H540.376V58.9006ZM540.376 51.7358H542.481C542.931 51.7358 543.328 51.665 543.672 51.5234C544.017 51.3819 544.285 51.1787 544.476 50.9141C544.673 50.6432 544.771 50.3139 544.771 49.9261C544.771 49.3414 544.562 48.8951 544.143 48.5874C543.725 48.2734 543.195 48.1165 542.555 48.1165H540.376V51.7358ZM555.41 63V44.0909H563.572C564.975 44.0909 566.203 44.3464 567.256 44.8572C568.308 45.3681 569.127 46.1037 569.712 47.0639C570.297 48.0241 570.589 49.1752 570.589 50.517C570.589 51.8712 570.287 53.013 569.684 53.9425C569.087 54.8719 568.247 55.5736 567.164 56.0476C566.086 56.5215 564.828 56.7585 563.387 56.7585H558.512V52.7699H562.353C562.956 52.7699 563.47 52.696 563.895 52.5483C564.326 52.3944 564.655 52.1513 564.883 51.8189C565.117 51.4865 565.234 51.0526 565.234 50.517C565.234 49.9754 565.117 49.5353 564.883 49.1967C564.655 48.852 564.326 48.5997 563.895 48.4396C563.47 48.2734 562.956 48.1903 562.353 48.1903H560.543V63H555.41ZM566.49 54.321L571.217 63H565.64L561.024 54.321H566.49ZM580.489 63H574.949L581.191 44.0909H588.208L594.449 63H588.91L584.773 49.2983H584.625L580.489 63ZM579.455 55.5398H589.87V59.3807H579.455V55.5398ZM615.431 44.0909V63H611.147L604.315 53.0653H604.204V63H599.07V44.0909H603.428L610.15 53.9886H610.298V44.0909H615.431ZM627.935 63H620.66V44.0909H627.861C629.806 44.0909 631.487 44.4695 632.902 45.2266C634.324 45.9775 635.42 47.0608 636.189 48.4766C636.965 49.8861 637.353 51.5758 637.353 53.5455C637.353 55.5152 636.968 57.2079 636.199 58.6236C635.429 60.0331 634.34 61.1165 632.93 61.8736C631.521 62.6245 629.856 63 627.935 63ZM625.793 58.642H627.75C628.686 58.642 629.483 58.4912 630.142 58.1896C630.807 57.888 631.311 57.3679 631.656 56.6293C632.007 55.8906 632.182 54.8627 632.182 53.5455C632.182 52.2282 632.004 51.2003 631.647 50.4616C631.296 49.723 630.779 49.2029 630.096 48.9013C629.419 48.5997 628.588 48.4489 627.603 48.4489H625.793V58.642Z" fill="white"/>
<defs>
<clipPath id="clip0_69_880">
<rect width="72" height="69.993" fill="white" transform="translate(305 1.00348)"/>
</clipPath>
</defs>
</svg>
