<svg width="1078" height="544" viewBox="0 0 1078 544" fill="none" xmlns="http://www.w3.org/2000/svg">
<path d="M547.204 0L549.277 0.172852C559.257 1.00472 568.7 3.99292 576.526 7.90625C582.453 10.8701 596.28 18.6635 604.602 34.6895L604.995 35.459L606.924 39.3184L608.165 43.4521C613.376 60.824 611.158 77.2886 605.4 91.1797C601.822 100.931 596.651 109.642 592.047 116.153C591.68 117.002 591.275 117.884 590.823 118.787L588.288 123.856C588.96 123.669 589.971 123.403 591.187 123.139C591.836 122.998 596.127 122.013 601.659 121.991H601.86C605.54 121.991 608.89 122.384 611.848 122.968H616.814L621.589 124.56C629.626 125.177 635.816 127.222 638.419 128.114C642.89 129.647 649.768 132.471 656.27 137.123C661.817 141.059 665.823 145.52 668.668 149.514L671.75 152.592C679.243 141.399 687.34 130.766 692.434 123.691L692.547 123.535L692.66 123.381C697.774 116.391 709.152 99.2871 722.263 86.3477C736.786 72.0152 759.687 55.9917 791.654 55.9912H791.655C795.65 55.9912 807.547 55.774 819.927 59.9004C833.281 64.3512 844.455 72.6325 852.773 83.9355C853.599 84.6365 854.439 85.3914 855.28 86.207L855.843 86.7627L855.844 86.7637C866.555 97.4747 870.075 109.889 871.121 118.119C872.089 125.737 871.259 132.026 870.874 134.646C870.745 135.519 870.608 136.321 870.489 136.993V147.208L863.364 159.083C862.769 160.074 862.089 161.341 860.625 164.137C859.54 166.207 857.837 169.478 855.837 172.908L860.106 173.762C866.947 175.13 873.709 177.838 879.897 182.041C882.07 183.517 883.996 185.06 885.7 186.597C892.895 183.628 900.965 181.134 909.314 180.206L912.067 179.9H912.554C919.202 178.129 928.732 175.991 939.27 175.991C955.788 175.991 968.917 180.394 977.23 183.512C986.758 187.085 987.839 187.79 990.516 188.487L991.076 188.627L991.273 188.675L991.47 188.725C993.877 189.326 995.918 189.716 999.282 190.374C1002.08 190.921 1007.38 191.934 1012.92 193.671C1026.79 198.016 1038.59 205.582 1049.18 217.328L1050.2 218.479L1052.34 220.917C1055.36 223.304 1058.4 226.243 1061.22 229.856L1061.86 230.687L1064.57 234.294L1064.8 234.76C1066.42 236.981 1068.02 239.514 1069.45 242.378C1071.79 247.06 1073.23 251.661 1074.05 255.979C1074.56 257.642 1075 259.39 1075.35 261.222C1075.53 262.1 1075.65 262.817 1075.74 263.338C1076.16 265.903 1076.32 268.084 1076.39 269.528C1076.48 269.986 1076.56 270.443 1076.63 270.901L1076.75 271.739L1076.85 272.482C1077.05 274.143 1077.21 276.094 1077.23 278.281L1077.24 278.282V278.771H1077.23C1077.22 280.275 1077.14 281.464 1077.1 282.047C1076.57 289.813 1074.32 296.687 1073.65 298.755C1072.52 302.267 1071.19 305.789 1069.94 308.861C1068.61 312.133 1065.67 319.22 1061.87 325.597C1060.52 328.088 1059.27 330.077 1058.19 331.697C1057.83 332.583 1057.47 333.561 1056.74 335.519C1055.5 338.83 1052.9 346.002 1048.66 353.425L1047.8 354.92L1047.24 355.757L1047.16 355.952L1047.03 356.258C1044.44 362.067 1041.28 366.604 1039.7 368.803C1037.96 371.23 1036.17 373.475 1035.02 374.903C1034.87 375.45 1034.71 376.07 1034.54 376.677C1034.13 378.197 1033.46 380.575 1032.64 383.037L1031.52 386.408L1029.93 389.586C1029.92 389.608 1029.75 389.951 1029.38 390.795C1028.99 391.674 1028.56 392.669 1027.99 394.01C1027.09 396.111 1025.35 400.202 1023.58 403.758L1023.18 404.557L1022.75 405.34C1021.24 408.111 1019.63 410.706 1018.6 412.348C1018.13 413.103 1017.74 413.707 1017.41 414.235C1017.24 415.157 1017.05 416.123 1016.81 417.125C1012.93 434.3 1004.07 449.38 995.051 460.648C985.913 472.071 973.152 483.907 957.587 491.422L954.7 492.815L951.659 493.829C943.443 496.567 935.772 496.718 932.056 496.596C925.108 496.989 919.505 496.29 917.485 496.053C912.696 495.489 908.214 494.646 904.982 493.953C904.583 493.874 904.22 493.799 903.898 493.728C903.503 493.64 903.125 493.551 902.766 493.463H875.842C875.795 493.543 875.747 493.625 875.698 493.707C875.044 494.79 874.15 496.184 873 497.739C871.872 499.265 870.246 501.289 868.073 503.463L853.426 518.118H848.714L845.295 528.381H809.249C806.425 528.381 803.948 528.145 801.922 527.852C801.875 527.849 801.829 527.848 801.784 527.846C797.189 527.581 793.628 526.731 792.346 526.416C789.304 525.668 786.824 524.767 785.838 524.404C783.418 523.514 781.063 522.502 779.562 521.844C776.452 520.479 773.115 518.904 771.741 518.217L764.482 514.588L763.126 513.231H738.02L734.395 502.354C726.432 499.354 716.363 493.878 707.998 483.654L708 483.651C704.378 479.227 702.467 475.401 702.07 474.632C701.141 472.834 700.458 471.252 700.008 470.15L694.249 464.391V460.038C693.906 459.581 693.603 459.166 693.341 458.801C693.173 458.566 693.009 458.334 692.849 458.105L692.092 457.349C691.983 457.289 691.874 457.228 691.764 457.168C691.09 456.974 690.263 456.725 689.346 456.42L685.974 455.296L682.795 453.707C682.024 453.322 681.283 452.924 680.569 452.522C678.349 451.732 675.786 450.691 673.021 449.309L671.051 448.323L669.176 447.17C666.171 445.32 663.566 444.262 661.752 443.809L658.46 442.986L655.309 441.726C654.983 441.595 654.669 441.465 654.369 441.341L653.942 441.198C653.324 442.319 652.709 443.423 652.1 444.507C652.096 444.514 652.093 444.523 652.089 444.53C652.05 444.6 652.011 444.669 651.972 444.738L651.97 444.737C650.3 447.72 648.627 450.259 646.982 452.493C646.956 452.529 646.928 452.563 646.902 452.599C644.123 458.186 640.353 464.195 637.247 468.689C635.196 471.657 632.555 475.25 629.543 478.729C627.759 480.79 622.117 487.33 613.591 492.422L613.592 492.423C607.094 496.322 599.367 500.776 586.454 504.466L579.718 506.391L572.713 506.39C570.423 506.389 567.249 506.185 565.059 506.021C564.374 506.453 563.753 506.842 563.216 507.176C559.742 509.337 558.11 510.324 556.779 511.212L554.189 512.938L551.437 514.314C551.043 514.637 550.618 514.977 550.165 515.326C549.333 515.966 548.242 516.768 546.929 517.631C546.883 517.661 546.835 517.69 546.787 517.722C546.7 517.779 546.615 517.839 546.529 517.895C544.222 519.403 542.14 520.497 540.532 521.264C540.197 521.423 539.87 521.572 539.554 521.715C525.341 530.698 506.795 538.36 492.733 541.708L491.064 542.105L489.372 542.387C485.144 543.091 479.09 543.632 472.024 542.561C466.787 542.436 462.204 541.585 458.591 540.624H456.426L455.366 540.358C454.757 540.348 454.097 540.333 453.438 540.306C452.394 540.263 450.672 540.171 448.639 539.931C447.593 539.807 446.191 539.613 444.567 539.298C443.011 538.996 440.691 538.476 437.972 537.569L436.576 537.104L435.21 536.557C428.054 533.694 422.59 529.78 418.639 526.235C416.392 525.049 413.775 523.504 411.02 521.513C406.328 518.122 401.999 514.002 398.189 509.104L396.336 506.72L394.782 504.131C391.724 499.034 389.915 494.229 388.888 490.982C388.124 489.659 387.085 487.904 385.326 484.826C384.328 483.081 383.117 480.923 381.829 478.429C379.725 478.572 377.496 478.595 375.163 478.44C374.869 478.421 374.572 478.397 374.274 478.372L309.657 490.124L311.833 479.231H300.534L293.696 482.652H287.715C287.263 482.757 286.662 482.894 286.007 483.028C285.572 483.118 284.72 483.289 283.67 483.459C283.14 483.545 282.279 483.677 281.217 483.797C280.673 483.859 279.945 483.931 279.087 483.992C278.264 484.05 277.037 484.118 275.547 484.118H275.533C272.763 484.118 270.065 483.858 268.238 483.635C264.829 484.272 262.464 484.401 261.995 484.438C258.596 484.711 255.48 484.708 253.239 484.653C249.464 484.561 243.645 484.204 238.36 483.147L236.376 482.75L234.854 482.315L229.776 497.551L219.199 476.376C215.755 474.87 212.252 472.882 208.848 470.295C205.57 467.803 202.758 465.038 200.373 462.137C199.245 460.824 198.354 459.704 197.915 459.145C197.27 458.325 196.099 456.807 194.875 454.99C194.324 454.173 193.126 452.363 191.873 449.997C191.415 449.134 190.695 447.721 189.924 445.895C189.496 445.133 189.127 444.429 188.81 443.8C188.802 443.788 188.794 443.777 188.787 443.766C188.588 443.488 188.378 443.195 188.161 442.887L170.348 460.7L157.442 454.275C156.279 454.584 155.274 454.833 154.467 455.029C153.021 455.381 152.582 455.482 152.061 455.611C151.881 455.695 151.65 455.802 151.336 455.949C150.778 456.21 149.833 456.653 148.818 457.11C144.086 459.24 136.757 462.176 126.938 463.579L126.504 463.642L126.069 463.696C112.912 465.341 99.319 462.594 93.4244 461.344C85.4516 459.652 77.6506 457.438 72.2897 455.651L68.9186 454.527L68.4791 454.308H56.7477L44.0934 437.435C43.2732 436.421 42.5084 435.402 41.8004 434.378L41.7477 434.308C40.6202 432.804 39.6963 431.507 39.1031 430.677C38.5214 429.862 38.2224 429.447 37.9127 429.032C35.5739 425.946 33.6702 422.815 32.1236 419.743C31.8015 419.103 31.5029 418.472 31.2184 417.854C30.2754 417.221 29.3344 416.543 28.4 415.818C25.4525 413.985 22.2075 411.568 19.025 408.386L18.0943 407.455L17.2135 406.476C8.86304 397.196 5.33644 387.06 3.81993 381.999C1.99774 375.918 1.04315 370.009 0.541607 365.05C-0.327466 356.456 -0.437894 344.533 2.41172 333.207C10.9352 297.008 34.4083 274.577 46.2027 261.277C51.2164 255.513 61.6153 243.598 72.4127 232.094C77.8709 226.278 83.8206 220.149 89.4811 214.796C94.1426 210.387 101.902 203.287 110.31 198.382L111.703 197.569L113.144 196.849C114.971 195.935 116.645 195.202 118.037 194.632C118.39 194.357 118.775 194.061 119.188 193.751L121.026 192.372L122.983 191.168C129.232 187.323 137.325 183.515 143.481 180.848C149.107 178.41 158.264 174.667 166.289 172.814L171.838 171.534H177.533C179.972 171.534 184.396 171.751 187.367 171.937C189.063 172.042 191.301 172.2 193.426 172.421C194.365 172.519 196.172 172.717 198.216 173.074C199.128 173.234 201.236 173.619 203.796 174.352C205.05 174.711 207.396 175.429 210.202 176.656C211.69 177.307 216.225 179.309 221.317 183.348C225.873 186.003 230.466 189.539 234.696 194.239C235.846 195.517 236.892 196.798 237.843 198.056C238.249 198.352 238.66 198.661 239.076 198.984C243.378 202.33 246.724 206.005 249.322 209.604C250.909 206.67 252.154 204.26 253.318 201.674C253.517 201.22 253.828 200.429 254.76 197.898C255.471 195.97 256.778 192.378 258.409 188.643L258.671 188.017C259.235 186.645 259.51 185.74 260.975 181.751C262.462 177.705 264.515 172.488 267.798 166.26C271.526 159.054 277.433 147.758 284.237 136.561C290.399 126.419 299.909 111.892 311.564 101.169L312.834 100.001L314.182 98.9229C317.825 96.0087 332.979 83.8849 344.559 78.0947C347.654 76.5472 350.977 75.299 353.027 74.582C355.511 73.5126 360.577 71.353 364.977 69.7588C370.19 67.8702 381.452 64.0197 394.287 64.0195L395.532 64.0322C401.429 64.1529 407.879 65.1385 414.323 67.3428C418.878 62.0313 423.661 57.6245 427.796 54.2314C440.781 42.4009 461.299 30.029 478.265 21.2705C487.971 16.2601 498.497 11.4044 508.619 7.66797C517.218 4.49351 530.982 0 545.124 0H547.204ZM791.655 105.991C763.799 105.991 747.672 132.87 733.011 152.906C724.215 165.124 713.952 178.319 706.622 191.025L706.035 192.128C700.052 203.547 696.649 215.826 690.495 227.188L689.986 228.104C679.195 247.332 661.928 266.087 647.977 284.367C634.294 302.938 621.099 322.486 608.393 341.545C607.416 342.522 606.927 344.477 606.438 344.966C605.95 345.454 605.461 344.966 604.972 345.454C600.478 347.701 592.285 361.302 584.824 375.372C583.803 372.262 582.531 369.286 581.824 365.517C580.358 358.186 578.891 350.367 576.448 343.525C572.538 330.819 566.185 320.556 561.298 308.827C555.434 295.632 549.081 279.016 552.991 262.4C553.48 261.422 555.923 256.048 556.9 255.07C558.794 251.756 571.236 243.856 575.122 242.032L575.47 241.875C583.29 238.454 582.313 241.386 588.666 240.897C590.04 240.897 593.992 240.469 595.688 240.415L595.996 240.409C596.973 239.92 598.928 238.943 599.906 238.943C600.822 238.944 601.309 239.803 602.172 239.91L602.349 239.921C604.64 239.463 607.79 237.716 609.786 236.291L610.169 236.011C610.627 235.553 611.514 235.524 612.026 235.119L612.123 235.033C612.856 234.3 614.963 231.093 616.383 228.917L617.499 227.214C618.965 224.77 619.943 218.906 620.431 217.929C621.806 215.18 624.469 211.572 626.005 208.716L626.296 208.155C628.189 203.421 632.376 193.183 632.635 188.549L632.648 188.118C632.648 187.659 631.36 183.766 631.199 182.878L631.182 182.742C630.724 182.285 629.836 182.686 629.324 181.933L629.227 181.766C628.739 181.277 628.739 178.833 627.273 177.855C625.318 176.389 619.454 173.946 616.033 174.435L615.849 174.445C614.931 174.553 613.986 175.412 612.612 175.412L612.342 175.31C611.022 174.744 610.076 173.427 608.702 172.969C607.236 172.969 605.77 173.457 604.793 173.457L604.609 173.36C603.693 172.85 602.776 171.991 601.86 171.991C601.367 171.993 593.063 175.413 591.597 176.39C589.154 177.367 584.756 180.299 582.801 180.788L582.663 180.784C581.261 180.701 579.47 179.409 578.498 179.325L578.403 179.321C569.607 178.833 554.946 184.697 546.149 189.584C533.652 195.687 522.19 207.149 513.103 219.651C513.208 219.465 513.295 219.277 513.358 219.09C516.779 212.248 519.711 200.031 518.734 193.678C518.245 192.212 516.778 191.235 516.29 189.769V190.257C515.312 188.791 513.846 186.348 512.38 185.37C507.494 182.438 503.095 182.438 496.742 183.904C491.366 184.882 486.479 187.814 482.081 189.769C480.614 190.746 475.24 193.189 474.751 193.678C471.33 194.655 471.33 191.723 465.465 196.121C460.578 199.542 455.202 216.647 452.27 223C449.827 228.376 445.428 234.24 442.985 240.104L441.984 242.074C431.713 262.432 423.621 282.805 414.152 303.636C411.609 308.722 408.14 314.866 405.19 320.968C404.63 320.345 404.693 319.205 402.594 318.785C400.151 318.297 395.264 322.205 393.309 324.16C381.092 333.934 368.386 344.686 355.191 350.551C345.906 355.438 337.598 360.325 328.801 364.234C317.073 370.099 316.583 369.121 305.343 369.609C300.945 370.098 296.059 371.565 292.149 371.076C295.081 365.701 288.728 359.836 291.66 355.438C292.637 354.46 293.126 354.46 293.615 353.972C295.081 352.994 308.275 328.56 310.23 324.649C322.936 302.169 331.245 279.689 343.462 257.209C345.417 253.788 345.417 254.276 347.372 251.833C348.288 250.459 348.775 248.225 349.637 246.743L349.815 246.457C354.213 239.127 360.078 231.308 365.454 223.978C366.92 222.023 367.408 222.022 367.897 221.045C368.874 220.068 369.852 217.136 370.83 216.158C371.288 215.7 372.605 215.671 373.171 214.863L373.273 214.691C374.25 212.737 375.228 210.293 376.694 207.85C385.002 194.166 394.287 182.437 402.106 167.776C404.55 162.889 409.926 154.093 410.903 149.694C411.88 146.762 410.903 142.364 411.391 139.921C411.391 136.989 412.368 134.056 412.857 131.124C412.857 125.748 410.902 122.816 406.993 119.884C406.504 118.906 404.55 116.953 404.061 116.952C403.572 116.464 402.595 117.44 401.618 117.44L401.532 117.43C401.129 117.322 401.129 116.463 401.129 116.463C399.662 114.997 397.219 114.02 394.287 114.02C386.956 114.02 376.694 118.906 370.83 121.35C369.364 121.838 367.897 122.328 366.92 122.816C361.055 125.749 350.304 134.056 345.417 137.966L344.842 138.503C332.773 150.012 319.401 175.329 312.185 189.279L311.827 189.96C308.212 196.917 307.206 201.711 304.366 208.339C302.411 212.737 300.946 217.624 298.991 222.022L298.388 223.346C292.092 236.96 283.688 248.855 278.954 262.584C278.465 263.073 277.487 263.073 276.999 264.051C273.578 268.938 272.112 274.802 270.157 279.688C270.128 279.762 270.097 279.835 270.068 279.908C267.041 281.679 264.173 283.616 261.589 285.554C249.372 294.35 238.132 303.635 226.892 312.432C220.539 317.319 214.674 323.183 208.321 328.559C189.75 345.174 163.849 358.858 138.437 358.858C133.55 358.858 129.641 357.881 124.265 356.415H120.355C120.355 356.415 117.912 353.971 117.423 353.482C116.935 352.016 115.957 349.573 116.446 347.618C116.446 347.129 117.912 343.22 117.912 343.22C119.378 341.754 120.844 343.22 122.31 343.22C124.265 343.22 130.618 343.22 132.573 342.242C133.55 341.753 135.994 339.799 137.46 339.799C138.926 339.31 139.904 340.288 141.37 339.799C141.858 339.799 141.858 339.31 142.346 338.821C150.654 335.4 161.895 330.514 168.737 324.649C169.714 324.16 170.202 322.205 170.691 321.717C171.668 321.228 173.135 321.229 173.624 321.229C174.112 320.74 174.601 319.273 175.089 318.296C178.999 314.386 182.421 312.431 185.841 308.033C186.33 307.056 187.307 307.544 187.307 304.612C188.773 305.59 189.75 304.124 191.216 302.658C191.705 302.658 192.683 302.169 193.171 302.169C193.163 302.153 192.683 301.188 192.683 300.703C193.661 299.726 197.57 296.794 199.036 294.839C202.457 288.974 205.877 281.644 208.321 275.779C208.81 274.802 210.275 272.848 210.764 271.87C211.253 269.915 211.253 267.96 211.742 266.006C211.742 265.548 210.454 261.653 210.293 259.96L210.276 259.652C209.787 254.277 211.254 246.457 209.788 241.57C208.81 237.661 208.321 238.638 205.878 237.172C204.411 236.194 200.503 232.286 199.525 230.819C196.593 224.955 195.126 226.909 190.728 223.978C190.239 223.489 190.239 222.511 190.239 222.511C189.745 222.022 178.999 221.534 177.533 221.534C171.179 223 155.541 229.841 149.188 233.751C147.233 235.217 145.279 237.172 143.324 238.149C141.369 239.615 138.437 240.104 135.505 241.57C123.776 248.412 93.4769 283.109 83.7027 294.35C68.553 311.454 55.8466 323.672 50.9596 345.175C49.0048 352.505 49.9824 368.143 54.3805 373.03C55.3579 374.008 57.3132 374.008 58.2906 374.497C58.7787 374.986 58.2907 375.962 59.2672 376.451L62.2604 377.185C63.7877 377.551 65.3762 377.918 65.6207 377.918C68.0642 378.407 66.5984 379.873 67.5758 381.339C67.5761 381.826 68.5442 384.248 68.5533 384.271C69.0421 384.759 70.508 383.782 70.9967 383.782C70.9967 384.271 70.9965 384.759 71.485 385.248L71.9234 385.662C76.2548 389.952 74.5246 394.671 77.8385 398.932C79.3046 400.886 80.2816 402.353 81.7477 404.308C82.2362 404.308 82.7249 404.308 83.2135 404.796C83.2135 404.796 82.7249 405.774 83.2135 406.263C83.7022 406.751 87.1238 407.728 88.1012 408.217C95.4317 410.66 112.048 415.059 119.867 414.082C126.708 413.105 130.129 410.172 135.994 408.217C140.392 406.751 144.79 406.262 149.677 404.308C152.121 402.842 155.542 400.398 158.474 399.421C159.443 399.421 160.411 399.901 160.428 399.909C160.917 399.42 160.428 398.931 161.406 397.954C162.383 397.465 164.339 397.466 165.316 396.978C166.294 396.489 170.691 394.534 171.669 394.045C174.601 392.579 177.533 388.669 180.954 388.669L180.465 387.203C182.42 388.18 183.886 385.737 185.352 385.248C186.818 384.271 190.728 383.293 191.706 382.805C192.194 382.316 192.195 381.339 192.683 381.339C192.683 380.85 196.592 381.338 199.036 379.872C204.9 375.962 211.253 372.053 217.118 368.144C218.095 367.166 219.073 367.166 220.05 366.188L220.539 367.166C221.516 364.234 223.96 364.723 224.937 364.234C226.403 363.257 231.29 356.904 234.711 354.949C236.521 353.656 237.373 353.182 238.353 352.59C231.518 368.198 223.242 383.322 223.73 398.932C224.219 406.751 226.174 410.172 230.084 415.548C230.572 416.525 231.55 416.525 232.527 417.991C233.016 418.969 233.016 421.411 233.993 421.9C234.481 422.389 235.948 422.389 236.437 422.878C236.925 423.367 235.459 425.321 235.948 426.299C235.948 426.788 238.392 429.72 238.88 430.209C239.369 431.186 240.835 430.209 241.324 430.209C242.79 432.164 244.745 433.141 248.166 434.118C250.609 434.607 258.429 435.096 260.383 434.118C261.849 433.141 262.827 431.186 264.782 431.186C265.27 431.186 264.782 432.163 265.27 432.163C266.248 432.652 274.067 434.118 275.533 434.118C275.992 434.118 280.745 432.83 281.74 432.669L281.886 432.652C282.864 432.163 284.818 429.72 285.796 429.231C287.75 428.254 288.239 429.231 288.728 429.231C288.728 428.773 288.728 427.886 289.936 426.972L290.194 426.788C290.683 426.299 291.66 426.299 292.637 425.811C295.569 423.856 298.502 420.435 301.922 419.946C300.945 417.991 302.411 418.968 303.878 418.479C304.855 417.502 305.344 416.525 305.833 416.036C308.276 414.57 312.674 413.593 315.118 411.149C316.095 410.661 316.583 409.684 317.072 409.684C318.049 409.195 319.028 410.172 319.516 410.172C319.516 410.172 319.516 409.195 320.004 408.706C320.004 408.217 321.471 408.217 321.96 407.239C326.358 403.818 334.177 396.488 339.064 393.556C353.236 385.736 369.363 370.098 381.581 358.369C384.513 355.926 385.491 353.482 386.957 351.527C388.912 349.572 394.776 345.175 397.219 342.731C397.489 342.461 398.205 341.631 399.123 340.541C397.847 343.767 393.934 349.018 392.649 352.017C388.739 359.347 384.341 366.677 381.897 374.008C381.409 374.985 378.969 381.33 378.965 381.339C378.966 381.827 380.431 381.827 379.943 381.827C379.943 382.804 377.988 384.76 377.5 386.226C376.034 391.112 375.056 396.488 373.101 401.375C371.146 406.262 367.725 409.683 366.748 415.059C366.748 416.036 366.748 420.435 367.237 420.924C367.726 421.9 369.192 421.412 369.68 421.9C371.146 422.389 371.146 424.833 371.146 424.833C371.635 425.322 373.1 424.833 373.589 425.321L373.101 427.766L378.476 426.788C377.499 430.208 379.454 427.765 381.409 426.788C383.852 426.299 388.739 427.766 390.694 427.766C391.671 427.277 394.115 426.299 396.07 426.299C402.423 421.412 411.707 408.706 412.685 400.398C413.174 399.91 414.151 399.909 414.64 399.421C415.129 398.932 415.617 395.511 416.106 394.533C416.595 393.067 417.573 391.113 418.55 389.646C420.505 385.737 423.437 379.873 425.392 375.475C429.302 367.167 431.256 360.813 438.098 353.972C444.94 346.152 449.827 337.844 454.225 328.07C454.225 327.582 455.202 327.582 455.691 326.604C460.578 320.74 463.999 311.943 467.909 305.102C473.773 295.328 480.615 284.087 485.502 273.824C488.541 268.179 491.196 260.991 494.15 255.688C494.022 256.44 494.243 257.129 493.858 257.514C491.415 265.333 491.903 278.039 492.88 285.858C492.881 286.347 493.858 287.813 493.858 289.768C493.369 306.872 498.256 320.556 504.121 335.217C505.587 339.126 507.542 342.547 508.519 346.457L508.617 346.779C509.678 350.123 512.443 353.925 512.917 358.186C513.405 361.118 512.429 364.051 511.94 366.494L511.853 367.254C511.441 371.184 511.298 376.939 509.007 379.688C507.053 381.643 504.609 382.621 502.654 384.087C492.88 390.44 492.88 391.417 482.129 393.372L482.083 393.378C481.622 393.489 481.094 395.182 478.487 394.433L478.219 394.35C477.491 393.985 477.305 393.35 477.257 393.05L477.242 392.884C475.776 391.906 475.775 392.395 474.309 391.418C467.467 385.065 463.07 383.598 454.273 382.132C452.318 382.132 448.897 380.178 446.942 380.178C444.987 380.178 438.634 382.621 436.679 383.599C431.793 385.554 428.86 391.907 426.417 396.305C422.018 405.59 420.553 409.988 420.064 419.273C419.575 430.025 419.575 439.31 422.996 448.106C425.928 456.414 431.304 463.745 435.213 471.564C436.191 473.519 436.191 475.963 437.657 478.406C441.078 482.804 444.988 482.805 448.897 485.248C450.363 486.714 451.341 489.157 453.784 490.135L453.932 490.178C455.529 490.581 460.361 490.178 462.387 490.581L462.581 490.624H466.979C468.934 491.113 470.889 492.578 473.333 492.578C474.799 492.578 476.753 491.602 477.242 491.602C478.188 492.075 478.219 493.465 480.885 493.107L481.152 493.067C491.094 490.7 506.08 484.205 515.005 478.025L515.849 477.429C516.827 476.451 518.781 476.452 519.27 475.963C520.247 475.474 522.202 473.031 523.179 472.542C524.645 471.565 527.09 470.587 529.045 469.609C533.443 466.677 540.284 462.768 544.194 459.836C547.126 457.392 547.126 456.415 551.524 454.46C552.51 453.967 555.362 452.105 558.134 450.193C559.082 452.589 560.536 454.559 562.455 455.412C563.921 455.901 571.739 456.39 572.717 456.39C579.559 454.435 582.981 452.48 587.868 449.548C592.266 447.104 600.573 433.909 602.528 429.511C604.483 424.624 605.95 424.624 608.393 420.226C612.791 412.406 617.678 403.121 621.588 395.302C622.565 392.858 623.543 389.926 625.498 387.482L626.474 386.505C627.94 387.482 631.362 386.505 632.828 386.505C632.828 386.505 632.828 387.972 633.805 387.972C633.821 387.969 639.183 386.994 640.159 386.994C640.169 387.023 640.692 388.46 645.046 388.46C650.91 388.46 661.172 390.904 667.037 392.858L667.57 392.956C670.156 393.47 671.588 394.385 673.879 395.302C681.698 397.257 689.028 400.677 695.381 404.587C698.314 406.053 700.268 406.053 702.712 407.03C703.689 407.03 704.178 408.497 705.156 408.985C706.622 409.474 709.553 409.963 710.531 410.451C711.508 410.451 714.44 411.429 714.929 411.429C715.418 411.917 714.929 412.895 715.907 413.384C716.884 413.872 719.327 413.384 719.816 413.872C720.305 414.361 720.305 415.338 720.794 415.827C721.282 416.316 721.771 415.338 722.749 415.827C722.749 416.316 722.748 417.294 723.237 417.782C723.726 417.782 724.215 417.293 724.704 417.293C725.192 417.782 725.192 419.248 725.192 419.248C726.658 420.714 728.613 422.18 730.079 423.646C731.545 425.601 733.5 429.511 735.455 431.466C735.943 431.466 737.41 432.932 737.41 432.932C738.387 433.42 739.364 432.932 740.341 433.42C740.83 434.397 740.831 436.841 742.297 435.864V436.841L742.786 435.864C743.275 435.866 744.74 438.797 744.74 439.285C744.74 439.775 744.252 442.705 744.252 443.683C744.74 444.171 745.717 444.172 745.717 444.66C745.717 445.149 745.229 446.614 745.229 447.104C745.229 448.081 746.206 451.503 746.695 451.991C751.093 457.367 760.378 456.878 766.243 458.344C767.22 458.832 768.686 459.321 769.664 459.321C770.152 459.81 769.664 460.787 770.153 460.787C770.642 461.276 772.108 460.788 772.596 461.276C773.574 461.765 774.062 463.231 774.062 463.231C774.551 463.231 775.039 462.254 775.528 462.254C776.994 462.254 778.461 464.697 779.438 465.186C780.904 465.674 783.347 465.675 784.813 466.163C787.257 467.14 789.212 469.096 791.167 470.073C791.167 470.559 792.134 470.078 792.144 470.073C792.632 470.562 791.656 471.05 793.61 471.539C793.61 472.028 793.611 473.005 794.099 473.494L794.823 473.844C797.263 475.007 804.423 478.319 804.85 477.892C805.339 477.892 805.339 476.915 805.828 476.915C806.301 476.915 808.15 478.291 809.154 478.377L809.249 478.381L809.737 476.915C813.647 477.892 824.887 475.937 829.774 470.562C830.263 470.073 830.263 469.095 830.752 468.606C831.485 468.24 831.943 468.149 832.333 468.126L832.707 468.118C833.165 467.66 833.623 465.913 834.081 465.294L834.172 465.186C836.616 461.276 837.105 461.276 839.059 456.39C841.014 452.48 840.036 454.923 840.525 451.991C840.525 451.014 841.503 450.525 841.503 450.036C842.953 444.598 843.057 434.589 843.015 426.791C854.027 422.827 872.557 412.217 879.649 408.276C880.138 407.787 892.355 402.412 894.31 401.923C894.311 401.435 895.288 402.411 896.265 401.923C896.755 401.922 899.198 400.457 899.686 400.457C900.175 399.968 900.663 398.014 901.64 398.502C899.685 403.878 893.821 412.675 894.798 418.051C894.799 418.539 895.776 418.539 895.776 419.517C896.265 425.381 895.288 429.779 899.686 433.688C901.153 434.666 906.039 436.621 906.528 437.599C907.016 438.087 906.039 439.064 906.528 439.064C906.528 439.553 909.46 440.042 910.437 441.02C911.413 441.996 910.927 443.459 910.925 443.463C911.414 443.463 914.347 444.929 914.836 444.929C919.234 445.906 927.541 447.372 931.451 446.395C931.461 446.396 934.386 446.882 935.849 446.395C950.022 439.553 964.683 421.471 968.104 405.833C968.593 403.878 968.104 401.923 968.592 399.969C969.967 394.929 975.207 387.741 978.273 382.433L978.855 381.397C980.81 377.488 983.254 371.135 985.209 367.226C986.675 362.827 988.141 355.496 990.095 351.587C992.539 347.189 999.381 340.347 1001.34 335.949C1002.62 332.956 1003.15 331.833 1004.58 329.635L1005.24 328.618C1009.15 321.776 1010.62 314.446 1014.53 307.115C1016 304.672 1016.97 303.695 1018.44 300.763C1020.82 297.426 1026.92 282.935 1027.22 278.593C1027.11 277.792 1026.26 277.762 1026.26 277.305C1026.26 275.839 1026.75 271.929 1026.26 270.951C1026.26 269.974 1025.28 269.486 1024.79 268.997C1024.3 266.554 1026.26 265.576 1023.33 263.133C1021.37 261.178 1022.35 261.666 1021.86 260.688C1020.4 258.734 1016.97 259.223 1016.97 258.734C1016.98 258.731 1017.46 257.755 1016.97 256.779C1016.51 255.863 1013.91 253.228 1012.78 251.694L1012.58 251.403C1002.31 239.675 994.982 241.141 979.343 237.231C965.171 233.81 954.42 225.991 939.27 225.991C934.872 225.991 929.985 226.968 924.609 228.435C923.143 228.923 921.189 230.389 920.212 230.39L919.85 230.384C918.071 230.33 916.668 229.9 914.836 229.9C892.844 232.344 834.688 277.305 831.267 304.672C831.267 305.161 832.245 305.161 832.245 306.138C832.245 310.047 830.779 313.957 833.222 316.89C833.711 317.867 835.177 317.867 835.666 318.355C838.109 320.799 841.53 324.22 844.463 326.175C846.417 327.152 848.372 327.152 849.839 327.641C853.259 328.618 852.282 329.107 856.68 328.618C866.454 326.663 879.161 318.845 888.446 314.446C902.129 308.093 919.722 296.853 933.406 293.921C936.827 292.944 945.134 291.966 948.555 291.966C949.044 291.966 953.931 293.432 953.931 293.921L952.954 294.897C954.909 294.897 957.352 295.387 958.33 297.342C958.33 298.319 957.841 299.296 958.33 300.273C958.818 302.228 959.796 303.694 959.307 306.138C958.819 311.513 955.397 318.845 952.954 324.709C949.534 324.709 950.51 323.243 950.022 322.266C949.045 320.8 947.579 318.845 946.601 317.867C946.601 317.867 945.135 318.355 944.158 317.867C943.669 317.867 943.669 316.889 943.18 316.4C941.226 315.423 936.338 314.935 930.963 314.935C923.632 314.935 915.813 315.423 912.392 316.4C905.551 317.378 895.777 320.311 889.423 323.731C878.183 329.107 868.409 332.528 857.169 337.415C842.996 343.279 827.358 359.406 818.073 372.112C817.128 373.246 815.309 376.57 813.402 380.447C812.04 378.399 810.568 376.53 808.76 375.265C804.362 371.355 798.008 370.378 791.167 370.378C781.881 370.378 771.13 372.333 761.844 372.333C755.491 370.378 750.605 368.423 744.252 367.935C739.853 367.446 738.876 369.889 734.966 366.957C725.192 361.581 713.952 360.115 703.201 354.739C698.803 352.784 693.915 349.853 689.517 347.409C687.562 346.432 676.811 342.034 677.299 340.567C678.766 339.59 687.563 336.658 688.051 336.169V335.191C693.259 333.298 699.384 330.029 704.649 328.493L705.156 328.35C706.622 327.861 711.02 326.883 712.486 326.395C713.463 325.906 714.441 324.44 714.929 323.951C715.418 323.951 716.396 324.44 716.884 323.951C717.373 323.951 717.862 322.486 718.839 321.997C719.817 321.997 720.794 322.485 721.771 321.997C722.749 321.508 730.079 316.621 732.034 315.644C741.319 310.268 751.093 306.847 760.379 301.96C761.356 301.471 761.845 300.494 762.334 300.005C762.822 300.005 763.799 300.494 763.799 300.494C764.288 300.494 764.777 299.027 765.755 299.027C766.243 298.539 766.732 299.516 767.22 299.027C767.237 299.011 768.206 298.046 769.175 297.562C773.574 295.118 779.927 292.675 783.837 291.209C795.076 286.811 805.828 285.344 816.579 280.946C819.511 279.969 822.932 277.037 823.91 276.548C825.376 276.059 825.864 277.036 826.353 276.548C826.839 276.548 828.772 274.136 828.797 274.104C829.774 273.127 830.751 274.592 831.24 274.593C831.24 274.104 832.706 272.149 834.172 271.172C836.127 270.195 838.571 269.706 840.037 268.729C841.014 268.24 841.014 267.262 841.992 266.773C842.969 265.796 843.947 266.285 845.413 264.33C845.424 264.302 847.856 258.464 847.856 257.977C847.856 257.488 846.879 257.488 846.39 256.511C845.902 254.556 850.3 250.646 851.277 248.691C853.232 245.759 854.698 242.828 856.653 239.896C856.164 237.452 858.607 235.008 858.119 232.564C858.119 232.076 856.653 229.144 856.164 228.655C855.675 227.678 854.697 227.189 854.209 226.7C853.231 225.234 852.743 223.28 850.299 222.791C849.322 222.791 843.948 222.302 842.969 222.302C841.503 222.302 837.104 224.745 835.638 224.745C833.195 225.234 832.706 222.302 828.797 222.791C827.818 223.28 822.932 224.746 821.955 225.234C812.67 229.633 802.896 234.031 794.099 238.918C783.348 244.782 773.085 249.18 762.822 255.533C755.003 260.42 747.672 265.307 739.853 270.194C727.636 278.014 714.929 288.277 702.223 296.096L695.87 299.517C696.847 298.051 697.337 296.584 698.314 295.118C699.78 293.652 700.758 293.652 701.735 292.186C712.486 281.923 726.17 264.818 735.455 253.09C736.921 250.647 738.875 247.715 740.341 245.76C740.83 244.782 742.785 244.293 743.274 243.805C743.763 242.827 743.274 240.872 744.252 240.384C744.252 239.895 746.207 239.896 746.207 239.896C746.695 239.407 747.184 237.452 747.672 236.475C748.644 235.017 750.581 234.042 750.604 234.03C751.093 233.053 751.093 232.076 751.582 231.587C752.07 231.098 753.048 230.61 753.537 230.121C755.491 227.678 758.424 222.791 760.379 220.836C761.356 219.859 762.334 219.37 763.311 218.393C763.796 217.424 763.32 216.455 763.311 216.438C763.8 215.949 764.777 215.949 765.265 215.949C765.265 215.461 765.266 214.483 765.755 213.994C765.755 213.017 767.22 212.528 768.198 211.551C768.687 211.062 769.664 208.13 771.13 206.175C777.971 197.378 785.302 190.048 791.655 181.251C798.985 172.088 805.027 160.347 810.989 150.459L812.18 148.508C815.113 143.621 817.557 138.245 820.489 133.358C820.489 129.938 822.932 124.562 820.489 122.118C820 121.629 819.023 121.629 818.534 121.141C817.068 119.186 815.113 117.231 813.647 115.276C808.271 106.48 800.94 105.991 791.655 105.991ZM891.246 486.927C891.398 486.982 891.426 486.991 891.294 486.944C891.281 486.94 891.267 486.934 891.246 486.927ZM265.27 473.464C265.509 473.588 265.872 473.771 266.34 473.994C265.884 473.769 265.498 473.572 265.27 473.453V473.464ZM842.305 470.269C842.304 470.106 842.302 469.932 842.3 469.831C842.299 469.766 842.298 469.692 842.297 469.609C842.302 469.904 842.305 470.13 842.305 470.269ZM738.821 462.768C738.886 462.744 738.949 462.72 739.009 462.697C738.948 462.72 738.886 462.744 738.821 462.768ZM739.417 462.542C739.676 462.442 739.874 462.365 740.005 462.312C739.879 462.362 739.677 462.442 739.417 462.542ZM80.9518 454.308C81.7864 454.327 82.1169 454.308 81.7477 454.308H80.9518ZM127.956 427.112L127.957 427.113C127.959 427.109 127.965 427.095 127.969 427.087C127.978 427.069 127.987 427.052 127.996 427.034C128.013 426.999 128.031 426.963 128.048 426.928C128.049 426.926 128.05 426.925 128.05 426.924L127.956 427.112ZM665.712 419.301C665.716 419.331 665.721 419.363 665.726 419.396C665.721 419.364 665.716 419.332 665.712 419.301ZM909.46 347.678C911.903 347.678 913.369 346.211 916.301 348.166C916.79 348.166 916.791 349.144 916.791 349.633C918.256 352.077 915.813 362.338 913.37 365.271C909.949 367.225 906.527 367.225 903.595 368.691C896.754 370.646 889.911 374.556 883.558 375.533C866.943 377.976 876.716 357.452 880.137 355.985C880.626 355.497 881.604 355.985 882.092 355.985C882.581 355.985 885.025 353.542 886.491 352.564C895.776 347.189 900.663 347.678 909.46 347.678ZM51.4117 337.705C51.3224 337.741 51.251 337.77 51.2047 337.789C51.1594 337.807 51.1293 337.82 51.1266 337.821C51.0088 337.87 51.1824 337.798 51.4625 337.685C51.4446 337.692 51.4278 337.699 51.4117 337.705ZM149.677 283.11C151.143 282.133 155.052 280.667 156.03 281.644C158.473 285.553 150.166 298.259 146.745 302.169C142.346 307.545 140.88 307.056 135.505 309.988C134.527 310.477 134.039 311.455 133.55 311.943C132.084 312.432 126.708 313.41 125.242 313.898C120.844 313.899 117.423 315.364 118.4 310.478C118.889 307.057 122.798 299.726 125.242 297.282C128.663 293.861 145.279 285.065 149.677 283.11ZM1027.22 278.593C1027.23 278.648 1027.24 278.707 1027.24 278.771V278.282C1027.24 278.379 1027.23 278.483 1027.22 278.593ZM496.255 252.385C496.415 252.395 496.602 252.44 496.79 252.627C496.789 253.39 495.598 253.857 494.843 254.489C494.987 254.251 495.131 254.016 495.276 253.788C495.618 253.36 495.943 252.887 496.255 252.385ZM1055.78 237.146C1055.74 237.12 1055.71 237.097 1055.68 237.077C1055.63 237.042 1055.6 237.014 1055.57 236.997C1055.56 236.988 1055.55 236.981 1055.54 236.977L1055.78 237.146ZM623.181 231.94C623.258 231.952 623.326 231.962 623.385 231.971C623.322 231.962 623.253 231.951 623.181 231.94ZM1056.68 230.5C1056.68 230.503 1056.71 230.528 1056.76 230.571C1056.41 230.276 1056.32 230.215 1056.68 230.5ZM512.321 220.739C511.424 221.998 510.552 223.266 509.705 224.539C509.944 224.026 510.186 223.513 510.425 223C510.728 222.395 511.591 221.602 512.321 220.739ZM545.124 50C526.064 50 475.239 77.856 460.578 92.0283C453.736 97.404 445.429 106.201 445.918 114.02C445.918 114.997 448.36 115.486 447.872 117.44C447.872 118.418 444.451 121.35 443.473 122.327C441.03 125.748 438.098 130.636 437.121 134.057C437.121 134.546 436.632 138.451 436.631 138.455C436.632 138.944 438.587 140.899 438.098 142.364L443.962 143.342L443.473 144.319C444.939 144.319 448.849 144.319 449.827 144.808C450.804 144.808 453.247 148.716 453.736 149.206C453.741 149.204 454.715 148.718 455.203 148.718C455.691 149.207 455.692 150.183 456.669 150.672C460.578 153.115 464.977 153.115 469.864 153.115C470.345 153.596 470.352 154.078 470.352 154.093C472.307 154.581 481.104 151.161 483.547 150.184C485.014 149.695 487.456 149.206 488.922 148.229C489.408 147.743 489.893 146.776 489.9 146.763C490.877 146.274 491.855 146.762 492.343 146.273C492.351 146.243 492.836 144.315 493.321 143.83C493.81 142.364 496.254 141.386 497.231 139.432C498.208 137.966 498.697 136.011 499.674 134.545C504.073 130.147 515.802 123.793 521.177 119.884C523.62 117.929 523.621 116.463 526.064 115.485C527.043 114.995 537.793 104.246 539.748 102.291C540.725 100.825 545.124 97.4042 546.101 96.4268C546.59 95.4494 546.589 93.9827 547.078 92.5166C547.567 91.5392 549.033 90.5623 549.522 89.585C552.943 85.1867 556.852 78.8331 558.807 72.9688C561.174 67.7612 561.707 63.012 560.405 58.2773L560.273 57.8193C558.318 53.9098 550.988 50.4888 545.124 50ZM478.66 140.898C478.66 140.412 480.597 141.378 480.615 141.387C480.615 141.875 480.127 143.341 480.127 143.83L477.682 144.319L478.66 140.898ZM869.984 139.673C869.936 139.931 869.958 139.852 870.015 139.508C870.007 139.549 869.997 139.603 869.984 139.673Z" fill="black"/>
</svg>
