<svg width="200" height="119" viewBox="0 0 200 119" fill="none" xmlns="http://www.w3.org/2000/svg">
<circle cx="142" cy="61" r="53" stroke="black" stroke-width="10"/>
<path d="M58 3C90.0325 3 116 28.9675 116 61C116 93.0325 90.0325 119 58 119C25.9675 119 0 93.0325 0 61C0 28.9675 25.9675 3 58 3ZM75.9863 32.8086C74.3756 32.8086 72.7943 32.9576 71.2432 33.2559C69.6917 33.5542 68.1401 33.8822 66.5889 34.2402C65.0376 34.5386 63.486 34.8374 61.9346 35.1357C60.3835 35.434 58.8021 35.583 57.1914 35.583C55.5209 35.583 53.8802 35.434 52.2695 35.1357C50.6585 34.8374 49.0474 34.5386 47.4365 34.2402C45.8852 33.8822 44.3637 33.5542 42.8721 33.2559C41.3804 32.9575 39.9183 32.8086 38.4863 32.8086C35.2646 32.8087 32.8784 33.5845 31.3271 35.1357C29.776 36.6273 29 38.5063 29 40.7734C29 42.6229 29.4772 44.2936 30.4316 45.7852C31.3862 47.217 32.5799 48.5596 34.0117 49.8125C35.4436 51.0057 36.9653 52.1097 38.5762 53.124C40.2468 54.1383 41.7985 55.1527 43.2305 56.167C44.6621 57.1215 45.855 58.106 46.8096 59.1201C47.7642 60.0748 48.2422 61.1192 48.2422 62.2529C48.2422 63.148 47.7944 63.9239 46.8994 64.5801C46.0642 65.2364 44.9902 65.8927 43.6777 66.5488C42.3652 67.1456 40.933 67.8016 39.3818 68.5176C37.8904 69.1739 36.4883 70.0093 35.1758 71.0234C33.8632 72.0377 32.7592 73.2613 31.8643 74.6934C31.0291 76.0656 30.6114 77.7656 30.6113 79.7939C30.6113 81.4048 30.8498 82.8078 31.3271 84.001C31.8045 85.1346 32.4305 86.0897 33.2061 86.8652C34.0413 87.6408 34.9663 88.2075 35.9805 88.5654C36.9948 88.9832 38.0393 89.1914 39.1133 89.1914C40.7837 89.1914 42.4244 89.0424 44.0352 88.7441C45.7058 88.4459 47.3471 88.1479 48.958 87.8496C50.569 87.4917 52.1802 87.1635 53.791 86.8652C55.4616 86.5668 57.1323 86.417 58.8027 86.417C60.4137 86.417 61.9947 86.5668 63.5459 86.8652C65.0971 87.1635 66.649 87.4917 68.2002 87.8496C69.7514 88.1479 71.3025 88.4459 72.8535 88.7441C74.4047 89.0424 75.9859 89.1914 77.5967 89.1914C78.9095 89.1914 80.1329 88.9227 81.2666 88.3857C82.4 87.9084 83.3845 87.2524 84.2197 86.417C85.1146 85.5818 85.801 84.5976 86.2783 83.4639C86.7555 82.3303 86.9941 81.1065 86.9941 79.7939C86.9941 78.4815 86.7554 77.2584 86.2783 76.125C85.801 74.9913 85.1146 74.0071 84.2197 73.1719C83.3845 72.2768 82.4001 71.5906 81.2666 71.1133C80.1329 70.6359 78.9095 70.3975 77.5967 70.3975C75.9263 70.3975 74.4346 70.785 73.1221 71.5605C71.8692 72.2765 70.5266 73.0818 69.0947 73.9766C67.6628 74.812 66.0223 75.618 64.1729 76.3936C62.3232 77.1095 59.9664 77.4677 57.1025 77.4678H54.9541C54.0592 77.4678 53.1643 77.4073 52.2695 77.2881C51.3745 77.1689 50.5986 76.9604 49.9424 76.6621C49.286 76.3042 48.9581 75.7969 48.958 75.1406C48.958 74.4248 49.4057 73.8582 50.3008 73.4404C51.1957 73.0228 52.2988 72.6342 53.6113 72.2764C54.9238 71.9185 56.3561 71.5007 57.9072 71.0234C59.4584 70.5461 60.8906 69.8899 62.2031 69.0547C63.5157 68.2195 64.6196 67.1155 65.5146 65.7432C66.4095 64.3114 66.8574 62.4917 66.8574 60.2842C66.8574 58.4348 66.3803 56.913 65.4258 55.7197C64.5307 54.4668 63.3968 53.4523 62.0244 52.6768C60.6522 51.8414 59.1304 51.1853 57.46 50.708C55.849 50.2307 54.3575 49.7829 52.9854 49.3652C51.6131 48.9476 50.4497 48.5299 49.4951 48.1123C48.6003 47.635 48.1524 47.0683 48.1523 46.4121C48.1523 45.7559 48.3909 45.308 48.8682 45.0693C49.3454 44.771 49.9424 44.5919 50.6582 44.5322C51.3741 44.4726 52.12 44.4726 52.8955 44.5322H54.8652C57.5498 44.5323 59.8466 44.9207 61.7559 45.6963C63.665 46.4123 65.3658 47.2173 66.8574 48.1123C68.4086 48.9476 69.9003 49.7527 71.332 50.5283C72.764 51.2443 74.3156 51.6025 75.9863 51.6025C77.2988 51.6025 78.5219 51.364 79.6553 50.8867C80.789 50.3498 81.7732 49.6634 82.6084 48.8281C83.5034 47.9929 84.1897 47.0086 84.667 45.875C85.1443 44.7414 85.3828 43.5177 85.3828 42.2051C85.3828 40.8926 85.1443 39.6696 84.667 38.5361C84.1897 37.4025 83.5034 36.4183 82.6084 35.583C81.7732 34.6881 80.789 34.0017 79.6553 33.5244C78.5218 33.0472 77.2988 32.8086 75.9863 32.8086Z" fill="black"/>
<path d="M142.909 84H125V37.4545H142.727C147.515 37.4545 151.652 38.3864 155.136 40.25C158.636 42.0985 161.333 44.7651 163.227 48.25C165.136 51.7197 166.091 55.8788 166.091 60.7273C166.091 65.5758 165.144 69.7424 163.25 73.2273C161.356 76.697 158.674 79.3636 155.205 81.2273C151.735 83.0758 147.636 84 142.909 84ZM137.636 73.2727H142.455C144.758 73.2727 146.72 72.9015 148.341 72.1591C149.977 71.4167 151.22 70.1364 152.068 68.3182C152.932 66.5 153.364 63.9697 153.364 60.7273C153.364 57.4848 152.924 54.9545 152.045 53.1364C151.182 51.3182 149.909 50.0379 148.227 49.2955C146.561 48.553 144.515 48.1818 142.091 48.1818H137.636V73.2727Z" fill="black"/>
</svg>
